<?xml version="1.0" encoding="UTF-8" ?>
<svg version="1.1" width="99" height="24" xmlns="http://www.w3.org/2000/svg" shape-rendering="crispEdges">
<rect x="49" y="1" width="1" height="1" fill="#1E1816" />
<rect x="50" y="1" width="1" height="1" fill="#1EC665" />
<rect x="51" y="1" width="1" height="1" fill="#1EC665" />
<rect x="49" y="2" width="1" height="1" fill="#1E1816" />
<rect x="50" y="2" width="1" height="1" fill="#1EC665" />
<rect x="51" y="2" width="1" height="1" fill="#1EC665" />
<rect x="8" y="3" width="1" height="1" fill="#1E1816" />
<rect x="9" y="3" width="1" height="1" fill="#76428A" />
<rect x="10" y="3" width="1" height="1" fill="#76428A" />
<rect x="11" y="3" width="1" height="1" fill="#76428A" />
<rect x="49" y="3" width="1" height="1" fill="#1E1816" />
<rect x="50" y="3" width="1" height="1" fill="#1EC665" />
<rect x="51" y="3" width="1" height="1" fill="#1EC665" />
<rect x="8" y="4" width="1" height="1" fill="#1E1816" />
<rect x="9" y="4" width="1" height="1" fill="#76428A" />
<rect x="10" y="4" width="1" height="1" fill="#1E1816" />
<rect x="11" y="4" width="1" height="1" fill="#76428A" />
<rect x="49" y="4" width="1" height="1" fill="#1E1816" />
<rect x="50" y="4" width="1" height="1" fill="#1EC665" />
<rect x="51" y="4" width="1" height="1" fill="#1EC665" />
<rect x="7" y="5" width="1" height="1" fill="#1E1816" />
<rect x="8" y="5" width="1" height="1" fill="#76428A" />
<rect x="9" y="5" width="1" height="1" fill="#76428A" />
<rect x="10" y="5" width="1" height="1" fill="#1E1816" />
<rect x="11" y="5" width="1" height="1" fill="#76428A" />
<rect x="12" y="5" width="1" height="1" fill="#76428A" />
<rect x="49" y="5" width="1" height="1" fill="#1E1816" />
<rect x="50" y="5" width="1" height="1" fill="#1EC665" />
<rect x="51" y="5" width="1" height="1" fill="#1EC665" />
<rect x="7" y="6" width="1" height="1" fill="#1E1816" />
<rect x="8" y="6" width="1" height="1" fill="#76428A" />
<rect x="9" y="6" width="1" height="1" fill="#76428A" />
<rect x="10" y="6" width="1" height="1" fill="#1E1816" />
<rect x="11" y="6" width="1" height="1" fill="#76428A" />
<rect x="12" y="6" width="1" height="1" fill="#76428A" />
<rect x="49" y="6" width="1" height="1" fill="#1E1816" />
<rect x="50" y="6" width="1" height="1" fill="#1EC665" />
<rect x="51" y="6" width="1" height="1" fill="#1EC665" />
<rect x="63" y="6" width="1" height="1" fill="#1E1816" />
<rect x="64" y="6" width="1" height="1" fill="#D77BBA" />
<rect x="65" y="6" width="1" height="1" fill="#D77BBA" />
<rect x="66" y="6" width="1" height="1" fill="#D77BBA" />
<rect x="6" y="7" width="1" height="1" fill="#1E1816" />
<rect x="7" y="7" width="1" height="1" fill="#76428A" />
<rect x="8" y="7" width="1" height="1" fill="#76428A" />
<rect x="11" y="7" width="1" height="1" fill="#1E1816" />
<rect x="12" y="7" width="1" height="1" fill="#76428A" />
<rect x="13" y="7" width="1" height="1" fill="#76428A" />
<rect x="17" y="7" width="1" height="1" fill="#1E1816" />
<rect x="18" y="7" width="1" height="1" fill="#5FCDE4" />
<rect x="19" y="7" width="1" height="1" fill="#5FCDE4" />
<rect x="20" y="7" width="1" height="1" fill="#5FCDE4" />
<rect x="21" y="7" width="1" height="1" fill="#1E1816" />
<rect x="22" y="7" width="1" height="1" fill="#5FCDE4" />
<rect x="23" y="7" width="1" height="1" fill="#5FCDE4" />
<rect x="24" y="7" width="1" height="1" fill="#5FCDE4" />
<rect x="25" y="7" width="1" height="1" fill="#5FCDE4" />
<rect x="26" y="7" width="1" height="1" fill="#5FCDE4" />
<rect x="28" y="7" width="1" height="1" fill="#1E1816" />
<rect x="29" y="7" width="1" height="1" fill="#5FCDE4" />
<rect x="30" y="7" width="1" height="1" fill="#5FCDE4" />
<rect x="31" y="7" width="1" height="1" fill="#5FCDE4" />
<rect x="32" y="7" width="1" height="1" fill="#5FCDE4" />
<rect x="33" y="7" width="1" height="1" fill="#5FCDE4" />
<rect x="38" y="7" width="1" height="1" fill="#1E1816" />
<rect x="39" y="7" width="1" height="1" fill="#E4CB16" />
<rect x="40" y="7" width="1" height="1" fill="#E4CB16" />
<rect x="41" y="7" width="1" height="1" fill="#E4CB16" />
<rect x="42" y="7" width="1" height="1" fill="#E4CB16" />
<rect x="43" y="7" width="1" height="1" fill="#E4CB16" />
<rect x="44" y="7" width="1" height="1" fill="#E4CB16" />
<rect x="49" y="7" width="1" height="1" fill="#1E1816" />
<rect x="50" y="7" width="1" height="1" fill="#1EC665" />
<rect x="51" y="7" width="1" height="1" fill="#1EC665" />
<rect x="56" y="7" width="1" height="1" fill="#1E1816" />
<rect x="57" y="7" width="1" height="1" fill="#D77BBA" />
<rect x="58" y="7" width="1" height="1" fill="#D77BBA" />
<rect x="59" y="7" width="1" height="1" fill="#D77BBA" />
<rect x="60" y="7" width="1" height="1" fill="#D77BBA" />
<rect x="61" y="7" width="1" height="1" fill="#D77BBA" />
<rect x="62" y="7" width="1" height="1" fill="#D77BBA" />
<rect x="63" y="7" width="1" height="1" fill="#D77BBA" />
<rect x="64" y="7" width="1" height="1" fill="#D77BBA" />
<rect x="68" y="7" width="1" height="1" fill="#1E1816" />
<rect x="69" y="7" width="1" height="1" fill="#DF7126" />
<rect x="70" y="7" width="1" height="1" fill="#DF7126" />
<rect x="71" y="7" width="1" height="1" fill="#DF7126" />
<rect x="72" y="7" width="1" height="1" fill="#DF7126" />
<rect x="73" y="7" width="1" height="1" fill="#DF7126" />
<rect x="74" y="7" width="1" height="1" fill="#DF7126" />
<rect x="79" y="7" width="1" height="1" fill="#1E1816" />
<rect x="80" y="7" width="1" height="1" fill="#306082" />
<rect x="81" y="7" width="1" height="1" fill="#306082" />
<rect x="82" y="7" width="1" height="1" fill="#306082" />
<rect x="83" y="7" width="1" height="1" fill="#1E1816" />
<rect x="84" y="7" width="1" height="1" fill="#306082" />
<rect x="85" y="7" width="1" height="1" fill="#306082" />
<rect x="86" y="7" width="1" height="1" fill="#306082" />
<rect x="87" y="7" width="1" height="1" fill="#306082" />
<rect x="88" y="7" width="1" height="1" fill="#306082" />
<rect x="90" y="7" width="1" height="1" fill="#1E1816" />
<rect x="91" y="7" width="1" height="1" fill="#306082" />
<rect x="92" y="7" width="1" height="1" fill="#306082" />
<rect x="93" y="7" width="1" height="1" fill="#306082" />
<rect x="94" y="7" width="1" height="1" fill="#306082" />
<rect x="95" y="7" width="1" height="1" fill="#306082" />
<rect x="6" y="8" width="1" height="1" fill="#1E1816" />
<rect x="7" y="8" width="1" height="1" fill="#76428A" />
<rect x="8" y="8" width="1" height="1" fill="#76428A" />
<rect x="11" y="8" width="1" height="1" fill="#1E1816" />
<rect x="12" y="8" width="1" height="1" fill="#76428A" />
<rect x="13" y="8" width="1" height="1" fill="#76428A" />
<rect x="18" y="8" width="1" height="1" fill="#1E1816" />
<rect x="19" y="8" width="1" height="1" fill="#5FCDE4" />
<rect x="20" y="8" width="1" height="1" fill="#5FCDE4" />
<rect x="21" y="8" width="1" height="1" fill="#5FCDE4" />
<rect x="24" y="8" width="1" height="1" fill="#1E1816" />
<rect x="25" y="8" width="1" height="1" fill="#5FCDE4" />
<rect x="26" y="8" width="1" height="1" fill="#5FCDE4" />
<rect x="27" y="8" width="1" height="1" fill="#5FCDE4" />
<rect x="28" y="8" width="1" height="1" fill="#5FCDE4" />
<rect x="31" y="8" width="1" height="1" fill="#1E1816" />
<rect x="32" y="8" width="1" height="1" fill="#5FCDE4" />
<rect x="33" y="8" width="1" height="1" fill="#5FCDE4" />
<rect x="34" y="8" width="1" height="1" fill="#5FCDE4" />
<rect x="43" y="8" width="1" height="1" fill="#1E1816" />
<rect x="44" y="8" width="1" height="1" fill="#E4CB16" />
<rect x="45" y="8" width="1" height="1" fill="#E4CB16" />
<rect x="46" y="8" width="1" height="1" fill="#E4CB16" />
<rect x="49" y="8" width="1" height="1" fill="#1E1816" />
<rect x="50" y="8" width="1" height="1" fill="#1EC665" />
<rect x="51" y="8" width="1" height="1" fill="#1EC665" />
<rect x="55" y="8" width="1" height="1" fill="#1E1816" />
<rect x="56" y="8" width="1" height="1" fill="#D77BBA" />
<rect x="57" y="8" width="1" height="1" fill="#D77BBA" />
<rect x="61" y="8" width="1" height="1" fill="#1E1816" />
<rect x="62" y="8" width="1" height="1" fill="#D77BBA" />
<rect x="63" y="8" width="1" height="1" fill="#D77BBA" />
<rect x="73" y="8" width="1" height="1" fill="#1E1816" />
<rect x="74" y="8" width="1" height="1" fill="#DF7126" />
<rect x="75" y="8" width="1" height="1" fill="#DF7126" />
<rect x="76" y="8" width="1" height="1" fill="#DF7126" />
<rect x="80" y="8" width="1" height="1" fill="#1E1816" />
<rect x="81" y="8" width="1" height="1" fill="#306082" />
<rect x="82" y="8" width="1" height="1" fill="#306082" />
<rect x="83" y="8" width="1" height="1" fill="#306082" />
<rect x="86" y="8" width="1" height="1" fill="#1E1816" />
<rect x="87" y="8" width="1" height="1" fill="#306082" />
<rect x="88" y="8" width="1" height="1" fill="#306082" />
<rect x="89" y="8" width="1" height="1" fill="#306082" />
<rect x="90" y="8" width="1" height="1" fill="#306082" />
<rect x="93" y="8" width="1" height="1" fill="#1E1816" />
<rect x="94" y="8" width="1" height="1" fill="#306082" />
<rect x="95" y="8" width="1" height="1" fill="#306082" />
<rect x="96" y="8" width="1" height="1" fill="#306082" />
<rect x="6" y="9" width="1" height="1" fill="#1E1816" />
<rect x="7" y="9" width="1" height="1" fill="#76428A" />
<rect x="11" y="9" width="1" height="1" fill="#1E1816" />
<rect x="12" y="9" width="1" height="1" fill="#76428A" />
<rect x="13" y="9" width="1" height="1" fill="#76428A" />
<rect x="14" y="9" width="1" height="1" fill="#76428A" />
<rect x="18" y="9" width="1" height="1" fill="#1E1816" />
<rect x="19" y="9" width="1" height="1" fill="#5FCDE4" />
<rect x="20" y="9" width="1" height="1" fill="#5FCDE4" />
<rect x="25" y="9" width="1" height="1" fill="#1E1816" />
<rect x="26" y="9" width="1" height="1" fill="#5FCDE4" />
<rect x="27" y="9" width="1" height="1" fill="#5FCDE4" />
<rect x="32" y="9" width="1" height="1" fill="#1E1816" />
<rect x="33" y="9" width="1" height="1" fill="#5FCDE4" />
<rect x="34" y="9" width="1" height="1" fill="#5FCDE4" />
<rect x="44" y="9" width="1" height="1" fill="#1E1816" />
<rect x="45" y="9" width="1" height="1" fill="#E4CB16" />
<rect x="46" y="9" width="1" height="1" fill="#E4CB16" />
<rect x="49" y="9" width="1" height="1" fill="#1E1816" />
<rect x="50" y="9" width="1" height="1" fill="#1EC665" />
<rect x="51" y="9" width="1" height="1" fill="#1EC665" />
<rect x="54" y="9" width="1" height="1" fill="#1E1816" />
<rect x="55" y="9" width="1" height="1" fill="#D77BBA" />
<rect x="56" y="9" width="1" height="1" fill="#D77BBA" />
<rect x="62" y="9" width="1" height="1" fill="#1E1816" />
<rect x="63" y="9" width="1" height="1" fill="#D77BBA" />
<rect x="64" y="9" width="1" height="1" fill="#D77BBA" />
<rect x="74" y="9" width="1" height="1" fill="#1E1816" />
<rect x="75" y="9" width="1" height="1" fill="#DF7126" />
<rect x="76" y="9" width="1" height="1" fill="#DF7126" />
<rect x="80" y="9" width="1" height="1" fill="#1E1816" />
<rect x="81" y="9" width="1" height="1" fill="#306082" />
<rect x="82" y="9" width="1" height="1" fill="#306082" />
<rect x="87" y="9" width="1" height="1" fill="#1E1816" />
<rect x="88" y="9" width="1" height="1" fill="#306082" />
<rect x="89" y="9" width="1" height="1" fill="#306082" />
<rect x="94" y="9" width="1" height="1" fill="#1E1816" />
<rect x="95" y="9" width="1" height="1" fill="#306082" />
<rect x="96" y="9" width="1" height="1" fill="#306082" />
<rect x="5" y="10" width="1" height="1" fill="#1E1816" />
<rect x="6" y="10" width="1" height="1" fill="#76428A" />
<rect x="7" y="10" width="1" height="1" fill="#76428A" />
<rect x="12" y="10" width="1" height="1" fill="#1E1816" />
<rect x="13" y="10" width="1" height="1" fill="#76428A" />
<rect x="14" y="10" width="1" height="1" fill="#76428A" />
<rect x="18" y="10" width="1" height="1" fill="#1E1816" />
<rect x="19" y="10" width="1" height="1" fill="#5FCDE4" />
<rect x="20" y="10" width="1" height="1" fill="#5FCDE4" />
<rect x="25" y="10" width="1" height="1" fill="#1E1816" />
<rect x="26" y="10" width="1" height="1" fill="#5FCDE4" />
<rect x="27" y="10" width="1" height="1" fill="#5FCDE4" />
<rect x="32" y="10" width="1" height="1" fill="#1E1816" />
<rect x="33" y="10" width="1" height="1" fill="#5FCDE4" />
<rect x="34" y="10" width="1" height="1" fill="#5FCDE4" />
<rect x="44" y="10" width="1" height="1" fill="#1E1816" />
<rect x="45" y="10" width="1" height="1" fill="#E4CB16" />
<rect x="46" y="10" width="1" height="1" fill="#E4CB16" />
<rect x="49" y="10" width="1" height="1" fill="#1E1816" />
<rect x="50" y="10" width="1" height="1" fill="#1EC665" />
<rect x="51" y="10" width="1" height="1" fill="#1EC665" />
<rect x="54" y="10" width="1" height="1" fill="#1E1816" />
<rect x="55" y="10" width="1" height="1" fill="#D77BBA" />
<rect x="56" y="10" width="1" height="1" fill="#D77BBA" />
<rect x="62" y="10" width="1" height="1" fill="#1E1816" />
<rect x="63" y="10" width="1" height="1" fill="#D77BBA" />
<rect x="64" y="10" width="1" height="1" fill="#D77BBA" />
<rect x="74" y="10" width="1" height="1" fill="#1E1816" />
<rect x="75" y="10" width="1" height="1" fill="#DF7126" />
<rect x="76" y="10" width="1" height="1" fill="#DF7126" />
<rect x="80" y="10" width="1" height="1" fill="#1E1816" />
<rect x="81" y="10" width="1" height="1" fill="#306082" />
<rect x="82" y="10" width="1" height="1" fill="#306082" />
<rect x="87" y="10" width="1" height="1" fill="#1E1816" />
<rect x="88" y="10" width="1" height="1" fill="#306082" />
<rect x="89" y="10" width="1" height="1" fill="#306082" />
<rect x="94" y="10" width="1" height="1" fill="#1E1816" />
<rect x="95" y="10" width="1" height="1" fill="#306082" />
<rect x="96" y="10" width="1" height="1" fill="#306082" />
<rect x="5" y="11" width="1" height="1" fill="#1E1816" />
<rect x="6" y="11" width="1" height="1" fill="#76428A" />
<rect x="12" y="11" width="1" height="1" fill="#1E1816" />
<rect x="13" y="11" width="1" height="1" fill="#76428A" />
<rect x="14" y="11" width="1" height="1" fill="#76428A" />
<rect x="18" y="11" width="1" height="1" fill="#1E1816" />
<rect x="19" y="11" width="1" height="1" fill="#5FCDE4" />
<rect x="20" y="11" width="1" height="1" fill="#5FCDE4" />
<rect x="25" y="11" width="1" height="1" fill="#1E1816" />
<rect x="26" y="11" width="1" height="1" fill="#5FCDE4" />
<rect x="27" y="11" width="1" height="1" fill="#5FCDE4" />
<rect x="32" y="11" width="1" height="1" fill="#1E1816" />
<rect x="33" y="11" width="1" height="1" fill="#5FCDE4" />
<rect x="34" y="11" width="1" height="1" fill="#5FCDE4" />
<rect x="40" y="11" width="1" height="1" fill="#1E1816" />
<rect x="41" y="11" width="1" height="1" fill="#E4CB16" />
<rect x="42" y="11" width="1" height="1" fill="#E4CB16" />
<rect x="43" y="11" width="1" height="1" fill="#E4CB16" />
<rect x="44" y="11" width="1" height="1" fill="#E4CB16" />
<rect x="45" y="11" width="1" height="1" fill="#E4CB16" />
<rect x="46" y="11" width="1" height="1" fill="#E4CB16" />
<rect x="49" y="11" width="1" height="1" fill="#1E1816" />
<rect x="50" y="11" width="1" height="1" fill="#1EC665" />
<rect x="51" y="11" width="1" height="1" fill="#1EC665" />
<rect x="54" y="11" width="1" height="1" fill="#1E1816" />
<rect x="55" y="11" width="1" height="1" fill="#D77BBA" />
<rect x="56" y="11" width="1" height="1" fill="#D77BBA" />
<rect x="62" y="11" width="1" height="1" fill="#1E1816" />
<rect x="63" y="11" width="1" height="1" fill="#D77BBA" />
<rect x="64" y="11" width="1" height="1" fill="#D77BBA" />
<rect x="70" y="11" width="1" height="1" fill="#1E1816" />
<rect x="71" y="11" width="1" height="1" fill="#DF7126" />
<rect x="72" y="11" width="1" height="1" fill="#DF7126" />
<rect x="73" y="11" width="1" height="1" fill="#DF7126" />
<rect x="74" y="11" width="1" height="1" fill="#DF7126" />
<rect x="75" y="11" width="1" height="1" fill="#DF7126" />
<rect x="76" y="11" width="1" height="1" fill="#DF7126" />
<rect x="80" y="11" width="1" height="1" fill="#1E1816" />
<rect x="81" y="11" width="1" height="1" fill="#306082" />
<rect x="82" y="11" width="1" height="1" fill="#306082" />
<rect x="87" y="11" width="1" height="1" fill="#1E1816" />
<rect x="88" y="11" width="1" height="1" fill="#306082" />
<rect x="89" y="11" width="1" height="1" fill="#306082" />
<rect x="94" y="11" width="1" height="1" fill="#1E1816" />
<rect x="95" y="11" width="1" height="1" fill="#306082" />
<rect x="96" y="11" width="1" height="1" fill="#306082" />
<rect x="4" y="12" width="1" height="1" fill="#1E1816" />
<rect x="5" y="12" width="1" height="1" fill="#76428A" />
<rect x="6" y="12" width="1" height="1" fill="#76428A" />
<rect x="7" y="12" width="1" height="1" fill="#76428A" />
<rect x="8" y="12" width="1" height="1" fill="#76428A" />
<rect x="9" y="12" width="1" height="1" fill="#76428A" />
<rect x="10" y="12" width="1" height="1" fill="#76428A" />
<rect x="11" y="12" width="1" height="1" fill="#76428A" />
<rect x="12" y="12" width="1" height="1" fill="#76428A" />
<rect x="13" y="12" width="1" height="1" fill="#76428A" />
<rect x="14" y="12" width="1" height="1" fill="#76428A" />
<rect x="15" y="12" width="1" height="1" fill="#76428A" />
<rect x="18" y="12" width="1" height="1" fill="#1E1816" />
<rect x="19" y="12" width="1" height="1" fill="#5FCDE4" />
<rect x="20" y="12" width="1" height="1" fill="#5FCDE4" />
<rect x="25" y="12" width="1" height="1" fill="#1E1816" />
<rect x="26" y="12" width="1" height="1" fill="#5FCDE4" />
<rect x="27" y="12" width="1" height="1" fill="#5FCDE4" />
<rect x="32" y="12" width="1" height="1" fill="#1E1816" />
<rect x="33" y="12" width="1" height="1" fill="#5FCDE4" />
<rect x="34" y="12" width="1" height="1" fill="#5FCDE4" />
<rect x="38" y="12" width="1" height="1" fill="#1E1816" />
<rect x="39" y="12" width="1" height="1" fill="#E4CB16" />
<rect x="40" y="12" width="1" height="1" fill="#E4CB16" />
<rect x="41" y="12" width="1" height="1" fill="#E4CB16" />
<rect x="44" y="12" width="1" height="1" fill="#1E1816" />
<rect x="45" y="12" width="1" height="1" fill="#E4CB16" />
<rect x="46" y="12" width="1" height="1" fill="#E4CB16" />
<rect x="49" y="12" width="1" height="1" fill="#1E1816" />
<rect x="50" y="12" width="1" height="1" fill="#1EC665" />
<rect x="51" y="12" width="1" height="1" fill="#1EC665" />
<rect x="55" y="12" width="1" height="1" fill="#1E1816" />
<rect x="56" y="12" width="1" height="1" fill="#D77BBA" />
<rect x="57" y="12" width="1" height="1" fill="#D77BBA" />
<rect x="61" y="12" width="1" height="1" fill="#1E1816" />
<rect x="62" y="12" width="1" height="1" fill="#D77BBA" />
<rect x="63" y="12" width="1" height="1" fill="#D77BBA" />
<rect x="68" y="12" width="1" height="1" fill="#1E1816" />
<rect x="69" y="12" width="1" height="1" fill="#DF7126" />
<rect x="70" y="12" width="1" height="1" fill="#DF7126" />
<rect x="71" y="12" width="1" height="1" fill="#DF7126" />
<rect x="74" y="12" width="1" height="1" fill="#1E1816" />
<rect x="75" y="12" width="1" height="1" fill="#DF7126" />
<rect x="76" y="12" width="1" height="1" fill="#DF7126" />
<rect x="80" y="12" width="1" height="1" fill="#1E1816" />
<rect x="81" y="12" width="1" height="1" fill="#306082" />
<rect x="82" y="12" width="1" height="1" fill="#306082" />
<rect x="87" y="12" width="1" height="1" fill="#1E1816" />
<rect x="88" y="12" width="1" height="1" fill="#306082" />
<rect x="89" y="12" width="1" height="1" fill="#306082" />
<rect x="94" y="12" width="1" height="1" fill="#1E1816" />
<rect x="95" y="12" width="1" height="1" fill="#306082" />
<rect x="96" y="12" width="1" height="1" fill="#306082" />
<rect x="4" y="13" width="1" height="1" fill="#1E1816" />
<rect x="5" y="13" width="1" height="1" fill="#76428A" />
<rect x="6" y="13" width="1" height="1" fill="#76428A" />
<rect x="13" y="13" width="1" height="1" fill="#1E1816" />
<rect x="14" y="13" width="1" height="1" fill="#76428A" />
<rect x="15" y="13" width="1" height="1" fill="#76428A" />
<rect x="18" y="13" width="1" height="1" fill="#1E1816" />
<rect x="19" y="13" width="1" height="1" fill="#5FCDE4" />
<rect x="20" y="13" width="1" height="1" fill="#5FCDE4" />
<rect x="25" y="13" width="1" height="1" fill="#1E1816" />
<rect x="26" y="13" width="1" height="1" fill="#5FCDE4" />
<rect x="27" y="13" width="1" height="1" fill="#5FCDE4" />
<rect x="32" y="13" width="1" height="1" fill="#1E1816" />
<rect x="33" y="13" width="1" height="1" fill="#5FCDE4" />
<rect x="34" y="13" width="1" height="1" fill="#5FCDE4" />
<rect x="37" y="13" width="1" height="1" fill="#1E1816" />
<rect x="38" y="13" width="1" height="1" fill="#E4CB16" />
<rect x="39" y="13" width="1" height="1" fill="#E4CB16" />
<rect x="44" y="13" width="1" height="1" fill="#1E1816" />
<rect x="45" y="13" width="1" height="1" fill="#E4CB16" />
<rect x="46" y="13" width="1" height="1" fill="#E4CB16" />
<rect x="49" y="13" width="1" height="1" fill="#1E1816" />
<rect x="50" y="13" width="1" height="1" fill="#1EC665" />
<rect x="51" y="13" width="1" height="1" fill="#1EC665" />
<rect x="56" y="13" width="1" height="1" fill="#1E1816" />
<rect x="57" y="13" width="1" height="1" fill="#D77BBA" />
<rect x="58" y="13" width="1" height="1" fill="#D77BBA" />
<rect x="59" y="13" width="1" height="1" fill="#D77BBA" />
<rect x="60" y="13" width="1" height="1" fill="#D77BBA" />
<rect x="61" y="13" width="1" height="1" fill="#D77BBA" />
<rect x="62" y="13" width="1" height="1" fill="#D77BBA" />
<rect x="67" y="13" width="1" height="1" fill="#1E1816" />
<rect x="68" y="13" width="1" height="1" fill="#DF7126" />
<rect x="69" y="13" width="1" height="1" fill="#DF7126" />
<rect x="74" y="13" width="1" height="1" fill="#1E1816" />
<rect x="75" y="13" width="1" height="1" fill="#DF7126" />
<rect x="76" y="13" width="1" height="1" fill="#DF7126" />
<rect x="80" y="13" width="1" height="1" fill="#1E1816" />
<rect x="81" y="13" width="1" height="1" fill="#306082" />
<rect x="82" y="13" width="1" height="1" fill="#306082" />
<rect x="87" y="13" width="1" height="1" fill="#1E1816" />
<rect x="88" y="13" width="1" height="1" fill="#306082" />
<rect x="89" y="13" width="1" height="1" fill="#306082" />
<rect x="94" y="13" width="1" height="1" fill="#1E1816" />
<rect x="95" y="13" width="1" height="1" fill="#306082" />
<rect x="96" y="13" width="1" height="1" fill="#306082" />
<rect x="3" y="14" width="1" height="1" fill="#1E1816" />
<rect x="4" y="14" width="1" height="1" fill="#76428A" />
<rect x="5" y="14" width="1" height="1" fill="#76428A" />
<rect x="13" y="14" width="1" height="1" fill="#1E1816" />
<rect x="14" y="14" width="1" height="1" fill="#76428A" />
<rect x="15" y="14" width="1" height="1" fill="#76428A" />
<rect x="16" y="14" width="1" height="1" fill="#76428A" />
<rect x="18" y="14" width="1" height="1" fill="#1E1816" />
<rect x="19" y="14" width="1" height="1" fill="#5FCDE4" />
<rect x="20" y="14" width="1" height="1" fill="#5FCDE4" />
<rect x="25" y="14" width="1" height="1" fill="#1E1816" />
<rect x="26" y="14" width="1" height="1" fill="#5FCDE4" />
<rect x="27" y="14" width="1" height="1" fill="#5FCDE4" />
<rect x="32" y="14" width="1" height="1" fill="#1E1816" />
<rect x="33" y="14" width="1" height="1" fill="#5FCDE4" />
<rect x="34" y="14" width="1" height="1" fill="#5FCDE4" />
<rect x="37" y="14" width="1" height="1" fill="#1E1816" />
<rect x="38" y="14" width="1" height="1" fill="#E4CB16" />
<rect x="39" y="14" width="1" height="1" fill="#E4CB16" />
<rect x="44" y="14" width="1" height="1" fill="#1E1816" />
<rect x="45" y="14" width="1" height="1" fill="#E4CB16" />
<rect x="46" y="14" width="1" height="1" fill="#E4CB16" />
<rect x="49" y="14" width="1" height="1" fill="#1E1816" />
<rect x="50" y="14" width="1" height="1" fill="#1EC665" />
<rect x="51" y="14" width="1" height="1" fill="#1EC665" />
<rect x="55" y="14" width="1" height="1" fill="#1E1816" />
<rect x="56" y="14" width="1" height="1" fill="#D77BBA" />
<rect x="57" y="14" width="1" height="1" fill="#D77BBA" />
<rect x="67" y="14" width="1" height="1" fill="#1E1816" />
<rect x="68" y="14" width="1" height="1" fill="#DF7126" />
<rect x="69" y="14" width="1" height="1" fill="#DF7126" />
<rect x="74" y="14" width="1" height="1" fill="#1E1816" />
<rect x="75" y="14" width="1" height="1" fill="#DF7126" />
<rect x="76" y="14" width="1" height="1" fill="#DF7126" />
<rect x="80" y="14" width="1" height="1" fill="#1E1816" />
<rect x="81" y="14" width="1" height="1" fill="#306082" />
<rect x="82" y="14" width="1" height="1" fill="#306082" />
<rect x="87" y="14" width="1" height="1" fill="#1E1816" />
<rect x="88" y="14" width="1" height="1" fill="#306082" />
<rect x="89" y="14" width="1" height="1" fill="#306082" />
<rect x="94" y="14" width="1" height="1" fill="#1E1816" />
<rect x="95" y="14" width="1" height="1" fill="#306082" />
<rect x="96" y="14" width="1" height="1" fill="#306082" />
<rect x="3" y="15" width="1" height="1" fill="#1E1816" />
<rect x="4" y="15" width="1" height="1" fill="#76428A" />
<rect x="5" y="15" width="1" height="1" fill="#76428A" />
<rect x="14" y="15" width="1" height="1" fill="#1E1816" />
<rect x="15" y="15" width="1" height="1" fill="#76428A" />
<rect x="16" y="15" width="1" height="1" fill="#76428A" />
<rect x="18" y="15" width="1" height="1" fill="#1E1816" />
<rect x="19" y="15" width="1" height="1" fill="#5FCDE4" />
<rect x="20" y="15" width="1" height="1" fill="#5FCDE4" />
<rect x="25" y="15" width="1" height="1" fill="#1E1816" />
<rect x="26" y="15" width="1" height="1" fill="#5FCDE4" />
<rect x="27" y="15" width="1" height="1" fill="#5FCDE4" />
<rect x="32" y="15" width="1" height="1" fill="#1E1816" />
<rect x="33" y="15" width="1" height="1" fill="#5FCDE4" />
<rect x="34" y="15" width="1" height="1" fill="#5FCDE4" />
<rect x="37" y="15" width="1" height="1" fill="#1E1816" />
<rect x="38" y="15" width="1" height="1" fill="#E4CB16" />
<rect x="39" y="15" width="1" height="1" fill="#E4CB16" />
<rect x="44" y="15" width="1" height="1" fill="#1E1816" />
<rect x="45" y="15" width="1" height="1" fill="#E4CB16" />
<rect x="46" y="15" width="1" height="1" fill="#E4CB16" />
<rect x="49" y="15" width="1" height="1" fill="#1E1816" />
<rect x="50" y="15" width="1" height="1" fill="#1EC665" />
<rect x="51" y="15" width="1" height="1" fill="#1EC665" />
<rect x="55" y="15" width="1" height="1" fill="#1E1816" />
<rect x="56" y="15" width="1" height="1" fill="#D77BBA" />
<rect x="57" y="15" width="1" height="1" fill="#D77BBA" />
<rect x="67" y="15" width="1" height="1" fill="#1E1816" />
<rect x="68" y="15" width="1" height="1" fill="#DF7126" />
<rect x="69" y="15" width="1" height="1" fill="#DF7126" />
<rect x="74" y="15" width="1" height="1" fill="#1E1816" />
<rect x="75" y="15" width="1" height="1" fill="#DF7126" />
<rect x="76" y="15" width="1" height="1" fill="#DF7126" />
<rect x="80" y="15" width="1" height="1" fill="#1E1816" />
<rect x="81" y="15" width="1" height="1" fill="#306082" />
<rect x="82" y="15" width="1" height="1" fill="#306082" />
<rect x="87" y="15" width="1" height="1" fill="#1E1816" />
<rect x="88" y="15" width="1" height="1" fill="#306082" />
<rect x="89" y="15" width="1" height="1" fill="#306082" />
<rect x="94" y="15" width="1" height="1" fill="#1E1816" />
<rect x="95" y="15" width="1" height="1" fill="#306082" />
<rect x="96" y="15" width="1" height="1" fill="#306082" />
<rect x="3" y="16" width="1" height="1" fill="#1E1816" />
<rect x="4" y="16" width="1" height="1" fill="#76428A" />
<rect x="5" y="16" width="1" height="1" fill="#76428A" />
<rect x="14" y="16" width="1" height="1" fill="#1E1816" />
<rect x="15" y="16" width="1" height="1" fill="#76428A" />
<rect x="16" y="16" width="1" height="1" fill="#76428A" />
<rect x="17" y="16" width="1" height="1" fill="#76428A" />
<rect x="18" y="16" width="1" height="1" fill="#1E1816" />
<rect x="19" y="16" width="1" height="1" fill="#5FCDE4" />
<rect x="20" y="16" width="1" height="1" fill="#5FCDE4" />
<rect x="25" y="16" width="1" height="1" fill="#1E1816" />
<rect x="26" y="16" width="1" height="1" fill="#5FCDE4" />
<rect x="27" y="16" width="1" height="1" fill="#5FCDE4" />
<rect x="32" y="16" width="1" height="1" fill="#1E1816" />
<rect x="33" y="16" width="1" height="1" fill="#5FCDE4" />
<rect x="34" y="16" width="1" height="1" fill="#5FCDE4" />
<rect x="37" y="16" width="1" height="1" fill="#1E1816" />
<rect x="38" y="16" width="1" height="1" fill="#E4CB16" />
<rect x="39" y="16" width="1" height="1" fill="#E4CB16" />
<rect x="40" y="16" width="1" height="1" fill="#E4CB16" />
<rect x="43" y="16" width="1" height="1" fill="#1E1816" />
<rect x="44" y="16" width="1" height="1" fill="#E4CB16" />
<rect x="45" y="16" width="1" height="1" fill="#E4CB16" />
<rect x="46" y="16" width="1" height="1" fill="#E4CB16" />
<rect x="49" y="16" width="1" height="1" fill="#1E1816" />
<rect x="50" y="16" width="1" height="1" fill="#1EC665" />
<rect x="51" y="16" width="1" height="1" fill="#1EC665" />
<rect x="55" y="16" width="1" height="1" fill="#1E1816" />
<rect x="56" y="16" width="1" height="1" fill="#D77BBA" />
<rect x="57" y="16" width="1" height="1" fill="#D77BBA" />
<rect x="58" y="16" width="1" height="1" fill="#D77BBA" />
<rect x="67" y="16" width="1" height="1" fill="#1E1816" />
<rect x="68" y="16" width="1" height="1" fill="#DF7126" />
<rect x="69" y="16" width="1" height="1" fill="#DF7126" />
<rect x="70" y="16" width="1" height="1" fill="#DF7126" />
<rect x="73" y="16" width="1" height="1" fill="#1E1816" />
<rect x="74" y="16" width="1" height="1" fill="#DF7126" />
<rect x="75" y="16" width="1" height="1" fill="#DF7126" />
<rect x="76" y="16" width="1" height="1" fill="#DF7126" />
<rect x="80" y="16" width="1" height="1" fill="#1E1816" />
<rect x="81" y="16" width="1" height="1" fill="#306082" />
<rect x="82" y="16" width="1" height="1" fill="#306082" />
<rect x="87" y="16" width="1" height="1" fill="#1E1816" />
<rect x="88" y="16" width="1" height="1" fill="#306082" />
<rect x="89" y="16" width="1" height="1" fill="#306082" />
<rect x="94" y="16" width="1" height="1" fill="#1E1816" />
<rect x="95" y="16" width="1" height="1" fill="#306082" />
<rect x="96" y="16" width="1" height="1" fill="#306082" />
<rect x="2" y="17" width="1" height="1" fill="#1E1816" />
<rect x="3" y="17" width="1" height="1" fill="#76428A" />
<rect x="4" y="17" width="1" height="1" fill="#76428A" />
<rect x="14" y="17" width="1" height="1" fill="#1E1816" />
<rect x="15" y="17" width="1" height="1" fill="#76428A" />
<rect x="16" y="17" width="1" height="1" fill="#76428A" />
<rect x="17" y="17" width="1" height="1" fill="#76428A" />
<rect x="18" y="17" width="1" height="1" fill="#1E1816" />
<rect x="19" y="17" width="1" height="1" fill="#5FCDE4" />
<rect x="20" y="17" width="1" height="1" fill="#5FCDE4" />
<rect x="25" y="17" width="1" height="1" fill="#1E1816" />
<rect x="26" y="17" width="1" height="1" fill="#5FCDE4" />
<rect x="27" y="17" width="1" height="1" fill="#5FCDE4" />
<rect x="32" y="17" width="1" height="1" fill="#1E1816" />
<rect x="33" y="17" width="1" height="1" fill="#5FCDE4" />
<rect x="34" y="17" width="1" height="1" fill="#5FCDE4" />
<rect x="38" y="17" width="1" height="1" fill="#1E1816" />
<rect x="39" y="17" width="1" height="1" fill="#E4CB16" />
<rect x="40" y="17" width="1" height="1" fill="#E4CB16" />
<rect x="41" y="17" width="1" height="1" fill="#E4CB16" />
<rect x="42" y="17" width="1" height="1" fill="#E4CB16" />
<rect x="43" y="17" width="1" height="1" fill="#E4CB16" />
<rect x="44" y="17" width="1" height="1" fill="#1E1816" />
<rect x="45" y="17" width="1" height="1" fill="#E4CB16" />
<rect x="46" y="17" width="1" height="1" fill="#E4CB16" />
<rect x="49" y="17" width="1" height="1" fill="#1E1816" />
<rect x="50" y="17" width="1" height="1" fill="#1EC665" />
<rect x="51" y="17" width="1" height="1" fill="#1EC665" />
<rect x="56" y="17" width="1" height="1" fill="#1E1816" />
<rect x="57" y="17" width="1" height="1" fill="#D77BBA" />
<rect x="58" y="17" width="1" height="1" fill="#D77BBA" />
<rect x="59" y="17" width="1" height="1" fill="#D77BBA" />
<rect x="60" y="17" width="1" height="1" fill="#D77BBA" />
<rect x="61" y="17" width="1" height="1" fill="#D77BBA" />
<rect x="62" y="17" width="1" height="1" fill="#D77BBA" />
<rect x="63" y="17" width="1" height="1" fill="#D77BBA" />
<rect x="64" y="17" width="1" height="1" fill="#D77BBA" />
<rect x="65" y="17" width="1" height="1" fill="#D77BBA" />
<rect x="68" y="17" width="1" height="1" fill="#1E1816" />
<rect x="69" y="17" width="1" height="1" fill="#DF7126" />
<rect x="70" y="17" width="1" height="1" fill="#DF7126" />
<rect x="71" y="17" width="1" height="1" fill="#DF7126" />
<rect x="72" y="17" width="1" height="1" fill="#DF7126" />
<rect x="73" y="17" width="1" height="1" fill="#DF7126" />
<rect x="74" y="17" width="1" height="1" fill="#1E1816" />
<rect x="75" y="17" width="1" height="1" fill="#DF7126" />
<rect x="76" y="17" width="1" height="1" fill="#DF7126" />
<rect x="80" y="17" width="1" height="1" fill="#1E1816" />
<rect x="81" y="17" width="1" height="1" fill="#306082" />
<rect x="82" y="17" width="1" height="1" fill="#306082" />
<rect x="87" y="17" width="1" height="1" fill="#1E1816" />
<rect x="88" y="17" width="1" height="1" fill="#306082" />
<rect x="89" y="17" width="1" height="1" fill="#306082" />
<rect x="94" y="17" width="1" height="1" fill="#1E1816" />
<rect x="95" y="17" width="1" height="1" fill="#306082" />
<rect x="96" y="17" width="1" height="1" fill="#306082" />
<rect x="54" y="18" width="1" height="1" fill="#1E1816" />
<rect x="55" y="18" width="1" height="1" fill="#D77BBA" />
<rect x="56" y="18" width="1" height="1" fill="#D77BBA" />
<rect x="63" y="18" width="1" height="1" fill="#1E1816" />
<rect x="64" y="18" width="1" height="1" fill="#D77BBA" />
<rect x="65" y="18" width="1" height="1" fill="#D77BBA" />
<rect x="66" y="18" width="1" height="1" fill="#D77BBA" />
<rect x="53" y="19" width="1" height="1" fill="#1E1816" />
<rect x="54" y="19" width="1" height="1" fill="#D77BBA" />
<rect x="55" y="19" width="1" height="1" fill="#D77BBA" />
<rect x="64" y="19" width="1" height="1" fill="#1E1816" />
<rect x="65" y="19" width="1" height="1" fill="#D77BBA" />
<rect x="66" y="19" width="1" height="1" fill="#D77BBA" />
<rect x="53" y="20" width="1" height="1" fill="#1E1816" />
<rect x="54" y="20" width="1" height="1" fill="#D77BBA" />
<rect x="55" y="20" width="1" height="1" fill="#D77BBA" />
<rect x="64" y="20" width="1" height="1" fill="#1E1816" />
<rect x="65" y="20" width="1" height="1" fill="#D77BBA" />
<rect x="66" y="20" width="1" height="1" fill="#D77BBA" />
<rect x="54" y="21" width="1" height="1" fill="#1E1816" />
<rect x="55" y="21" width="1" height="1" fill="#D77BBA" />
<rect x="56" y="21" width="1" height="1" fill="#D77BBA" />
<rect x="62" y="21" width="1" height="1" fill="#1E1816" />
<rect x="63" y="21" width="1" height="1" fill="#D77BBA" />
<rect x="64" y="21" width="1" height="1" fill="#D77BBA" />
<rect x="65" y="21" width="1" height="1" fill="#D77BBA" />
<rect x="55" y="22" width="1" height="1" fill="#1E1816" />
<rect x="56" y="22" width="1" height="1" fill="#D77BBA" />
<rect x="57" y="22" width="1" height="1" fill="#D77BBA" />
<rect x="58" y="22" width="1" height="1" fill="#D77BBA" />
<rect x="59" y="22" width="1" height="1" fill="#D77BBA" />
<rect x="60" y="22" width="1" height="1" fill="#D77BBA" />
<rect x="61" y="22" width="1" height="1" fill="#D77BBA" />
<rect x="62" y="22" width="1" height="1" fill="#D77BBA" />
<rect x="63" y="22" width="1" height="1" fill="#D77BBA" />
</svg>