<?xml version="1.0" encoding="UTF-8" ?>
<svg version="1.1" width="84" height="25" xmlns="http://www.w3.org/2000/svg" shape-rendering="crispEdges">
    <rect x="59" y="2" width="1" height="1" fill="#1E1816"/>
    <rect x="60" y="2" width="1" height="1" fill="#C46B16"/>
    <rect x="61" y="2" width="1" height="1" fill="#C46B16"/>
    <rect x="59" y="3" width="1" height="1" fill="#1E1816"/>
    <rect x="60" y="3" width="1" height="1" fill="#C46B16"/>
    <rect x="61" y="3" width="1" height="1" fill="#C46B16"/>
    <rect x="6" y="4" width="1" height="1" fill="#1E1816"/>
    <rect x="7" y="4" width="1" height="1" fill="#C46B16"/>
    <rect x="8" y="4" width="1" height="1" fill="#C46B16"/>
    <rect x="9" y="4" width="1" height="1" fill="#C46B16"/>
    <rect x="10" y="4" width="1" height="1" fill="#C46B16"/>
    <rect x="11" y="4" width="1" height="1" fill="#C46B16"/>
    <rect x="59" y="4" width="1" height="1" fill="#1E1816"/>
    <rect x="60" y="4" width="1" height="1" fill="#C46B16"/>
    <rect x="61" y="4" width="1" height="1" fill="#C46B16"/>
    <rect x="4" y="5" width="1" height="1" fill="#1E1816"/>
    <rect x="5" y="5" width="1" height="1" fill="#C46B16"/>
    <rect x="6" y="5" width="1" height="1" fill="#C46B16"/>
    <rect x="59" y="5" width="1" height="1" fill="#1E1816"/>
    <rect x="60" y="5" width="1" height="1" fill="#C46B16"/>
    <rect x="61" y="5" width="1" height="1" fill="#C46B16"/>
    <rect x="3" y="6" width="1" height="1" fill="#1E1816"/>
    <rect x="4" y="6" width="1" height="1" fill="#C46B16"/>
    <rect x="5" y="6" width="1" height="1" fill="#C46B16"/>
    <rect x="59" y="6" width="1" height="1" fill="#1E1816"/>
    <rect x="60" y="6" width="1" height="1" fill="#C46B16"/>
    <rect x="61" y="6" width="1" height="1" fill="#C46B16"/>
    <rect x="2" y="7" width="1" height="1" fill="#1E1816"/>
    <rect x="3" y="7" width="1" height="1" fill="#C46B16"/>
    <rect x="4" y="7" width="1" height="1" fill="#C46B16"/>
    <rect x="59" y="7" width="1" height="1" fill="#1E1816"/>
    <rect x="60" y="7" width="1" height="1" fill="#C46B16"/>
    <rect x="61" y="7" width="1" height="1" fill="#C46B16"/>
    <rect x="2" y="8" width="1" height="1" fill="#1E1816"/>
    <rect x="3" y="8" width="1" height="1" fill="#C46B16"/>
    <rect x="4" y="8" width="1" height="1" fill="#C46B16"/>
    <rect x="14" y="8" width="1" height="1" fill="#1E1816"/>
    <rect x="15" y="8" width="1" height="1" fill="#C46B16"/>
    <rect x="16" y="8" width="1" height="1" fill="#C46B16"/>
    <rect x="17" y="8" width="1" height="1" fill="#C46B16"/>
    <rect x="18" y="8" width="1" height="1" fill="#1E1816"/>
    <rect x="19" y="8" width="1" height="1" fill="#C46B16"/>
    <rect x="20" y="8" width="1" height="1" fill="#C46B16"/>
    <rect x="21" y="8" width="1" height="1" fill="#C46B16"/>
    <rect x="22" y="8" width="1" height="1" fill="#C46B16"/>
    <rect x="23" y="8" width="1" height="1" fill="#C46B16"/>
    <rect x="24" y="8" width="1" height="1" fill="#C46B16"/>
    <rect x="29" y="8" width="1" height="1" fill="#1E1816"/>
    <rect x="30" y="8" width="1" height="1" fill="#C46B16"/>
    <rect x="31" y="8" width="1" height="1" fill="#C46B16"/>
    <rect x="36" y="8" width="1" height="1" fill="#1E1816"/>
    <rect x="37" y="8" width="1" height="1" fill="#C46B16"/>
    <rect x="38" y="8" width="1" height="1" fill="#C46B16"/>
    <rect x="39" y="8" width="1" height="1" fill="#1E1816"/>
    <rect x="40" y="8" width="1" height="1" fill="#C46B16"/>
    <rect x="41" y="8" width="1" height="1" fill="#C46B16"/>
    <rect x="42" y="8" width="1" height="1" fill="#C46B16"/>
    <rect x="43" y="8" width="1" height="1" fill="#C46B16"/>
    <rect x="44" y="8" width="1" height="1" fill="#C46B16"/>
    <rect x="52" y="8" width="1" height="1" fill="#1E1816"/>
    <rect x="53" y="8" width="1" height="1" fill="#C46B16"/>
    <rect x="54" y="8" width="1" height="1" fill="#C46B16"/>
    <rect x="55" y="8" width="1" height="1" fill="#C46B16"/>
    <rect x="56" y="8" width="1" height="1" fill="#C46B16"/>
    <rect x="57" y="8" width="1" height="1" fill="#C46B16"/>
    <rect x="59" y="8" width="1" height="1" fill="#1E1816"/>
    <rect x="60" y="8" width="1" height="1" fill="#C46B16"/>
    <rect x="61" y="8" width="1" height="1" fill="#C46B16"/>
    <rect x="62" y="8" width="1" height="1" fill="#1E1816"/>
    <rect x="63" y="8" width="1" height="1" fill="#C46B16"/>
    <rect x="64" y="8" width="1" height="1" fill="#C46B16"/>
    <rect x="65" y="8" width="1" height="1" fill="#C46B16"/>
    <rect x="66" y="8" width="1" height="1" fill="#C46B16"/>
    <rect x="67" y="8" width="1" height="1" fill="#C46B16"/>
    <rect x="72" y="8" width="1" height="1" fill="#1E1816"/>
    <rect x="73" y="8" width="1" height="1" fill="#C46B16"/>
    <rect x="74" y="8" width="1" height="1" fill="#C46B16"/>
    <rect x="75" y="8" width="1" height="1" fill="#C46B16"/>
    <rect x="80" y="8" width="1" height="1" fill="#1E1816"/>
    <rect x="81" y="8" width="1" height="1" fill="#C46B16"/>
    <rect x="82" y="8" width="1" height="1" fill="#C46B16"/>
    <rect x="1" y="9" width="1" height="1" fill="#1E1816"/>
    <rect x="2" y="9" width="1" height="1" fill="#C46B16"/>
    <rect x="3" y="9" width="1" height="1" fill="#C46B16"/>
    <rect x="15" y="9" width="1" height="1" fill="#1E1816"/>
    <rect x="16" y="9" width="1" height="1" fill="#C46B16"/>
    <rect x="17" y="9" width="1" height="1" fill="#C46B16"/>
    <rect x="18" y="9" width="1" height="1" fill="#C46B16"/>
    <rect x="22" y="9" width="1" height="1" fill="#1E1816"/>
    <rect x="23" y="9" width="1" height="1" fill="#C46B16"/>
    <rect x="24" y="9" width="1" height="1" fill="#C46B16"/>
    <rect x="29" y="9" width="1" height="1" fill="#1E1816"/>
    <rect x="30" y="9" width="1" height="1" fill="#C46B16"/>
    <rect x="31" y="9" width="1" height="1" fill="#C46B16"/>
    <rect x="36" y="9" width="1" height="1" fill="#1E1816"/>
    <rect x="37" y="9" width="1" height="1" fill="#C46B16"/>
    <rect x="38" y="9" width="1" height="1" fill="#C46B16"/>
    <rect x="39" y="9" width="1" height="1" fill="#C46B16"/>
    <rect x="43" y="9" width="1" height="1" fill="#1E1816"/>
    <rect x="44" y="9" width="1" height="1" fill="#C46B16"/>
    <rect x="45" y="9" width="1" height="1" fill="#C46B16"/>
    <rect x="46" y="9" width="1" height="1" fill="#C46B16"/>
    <rect x="50" y="9" width="1" height="1" fill="#1E1816"/>
    <rect x="51" y="9" width="1" height="1" fill="#C46B16"/>
    <rect x="52" y="9" width="1" height="1" fill="#C46B16"/>
    <rect x="59" y="9" width="1" height="1" fill="#1E1816"/>
    <rect x="60" y="9" width="1" height="1" fill="#C46B16"/>
    <rect x="61" y="9" width="1" height="1" fill="#C46B16"/>
    <rect x="62" y="9" width="1" height="1" fill="#C46B16"/>
    <rect x="66" y="9" width="1" height="1" fill="#1E1816"/>
    <rect x="67" y="9" width="1" height="1" fill="#C46B16"/>
    <rect x="68" y="9" width="1" height="1" fill="#C46B16"/>
    <rect x="69" y="9" width="1" height="1" fill="#C46B16"/>
    <rect x="73" y="9" width="1" height="1" fill="#1E1816"/>
    <rect x="74" y="9" width="1" height="1" fill="#C46B16"/>
    <rect x="75" y="9" width="1" height="1" fill="#C46B16"/>
    <rect x="80" y="9" width="1" height="1" fill="#1E1816"/>
    <rect x="81" y="9" width="1" height="1" fill="#C46B16"/>
    <rect x="82" y="9" width="1" height="1" fill="#C46B16"/>
    <rect x="1" y="10" width="1" height="1" fill="#1E1816"/>
    <rect x="2" y="10" width="1" height="1" fill="#C46B16"/>
    <rect x="3" y="10" width="1" height="1" fill="#C46B16"/>
    <rect x="15" y="10" width="1" height="1" fill="#1E1816"/>
    <rect x="16" y="10" width="1" height="1" fill="#C46B16"/>
    <rect x="17" y="10" width="1" height="1" fill="#C46B16"/>
    <rect x="22" y="10" width="1" height="1" fill="#1E1816"/>
    <rect x="23" y="10" width="1" height="1" fill="#C46B16"/>
    <rect x="24" y="10" width="1" height="1" fill="#C46B16"/>
    <rect x="29" y="10" width="1" height="1" fill="#1E1816"/>
    <rect x="30" y="10" width="1" height="1" fill="#C46B16"/>
    <rect x="31" y="10" width="1" height="1" fill="#C46B16"/>
    <rect x="36" y="10" width="1" height="1" fill="#1E1816"/>
    <rect x="37" y="10" width="1" height="1" fill="#C46B16"/>
    <rect x="38" y="10" width="1" height="1" fill="#C46B16"/>
    <rect x="44" y="10" width="1" height="1" fill="#1E1816"/>
    <rect x="45" y="10" width="1" height="1" fill="#C46B16"/>
    <rect x="46" y="10" width="1" height="1" fill="#C46B16"/>
    <rect x="49" y="10" width="1" height="1" fill="#1E1816"/>
    <rect x="50" y="10" width="1" height="1" fill="#C46B16"/>
    <rect x="51" y="10" width="1" height="1" fill="#C46B16"/>
    <rect x="59" y="10" width="1" height="1" fill="#1E1816"/>
    <rect x="60" y="10" width="1" height="1" fill="#C46B16"/>
    <rect x="61" y="10" width="1" height="1" fill="#C46B16"/>
    <rect x="67" y="10" width="1" height="1" fill="#1E1816"/>
    <rect x="68" y="10" width="1" height="1" fill="#C46B16"/>
    <rect x="69" y="10" width="1" height="1" fill="#C46B16"/>
    <rect x="73" y="10" width="1" height="1" fill="#1E1816"/>
    <rect x="74" y="10" width="1" height="1" fill="#C46B16"/>
    <rect x="75" y="10" width="1" height="1" fill="#C46B16"/>
    <rect x="79" y="10" width="1" height="1" fill="#1E1816"/>
    <rect x="80" y="10" width="1" height="1" fill="#C46B16"/>
    <rect x="81" y="10" width="1" height="1" fill="#C46B16"/>
    <rect x="1" y="11" width="1" height="1" fill="#1E1816"/>
    <rect x="2" y="11" width="1" height="1" fill="#C46B16"/>
    <rect x="3" y="11" width="1" height="1" fill="#C46B16"/>
    <rect x="15" y="11" width="1" height="1" fill="#1E1816"/>
    <rect x="16" y="11" width="1" height="1" fill="#C46B16"/>
    <rect x="17" y="11" width="1" height="1" fill="#C46B16"/>
    <rect x="22" y="11" width="1" height="1" fill="#1E1816"/>
    <rect x="23" y="11" width="1" height="1" fill="#C46B16"/>
    <rect x="24" y="11" width="1" height="1" fill="#C46B16"/>
    <rect x="29" y="11" width="1" height="1" fill="#1E1816"/>
    <rect x="30" y="11" width="1" height="1" fill="#C46B16"/>
    <rect x="31" y="11" width="1" height="1" fill="#C46B16"/>
    <rect x="36" y="11" width="1" height="1" fill="#1E1816"/>
    <rect x="37" y="11" width="1" height="1" fill="#C46B16"/>
    <rect x="38" y="11" width="1" height="1" fill="#C46B16"/>
    <rect x="44" y="11" width="1" height="1" fill="#1E1816"/>
    <rect x="45" y="11" width="1" height="1" fill="#C46B16"/>
    <rect x="46" y="11" width="1" height="1" fill="#C46B16"/>
    <rect x="48" y="11" width="1" height="1" fill="#1E1816"/>
    <rect x="49" y="11" width="1" height="1" fill="#C46B16"/>
    <rect x="50" y="11" width="1" height="1" fill="#C46B16"/>
    <rect x="59" y="11" width="1" height="1" fill="#1E1816"/>
    <rect x="60" y="11" width="1" height="1" fill="#C46B16"/>
    <rect x="61" y="11" width="1" height="1" fill="#C46B16"/>
    <rect x="67" y="11" width="1" height="1" fill="#1E1816"/>
    <rect x="68" y="11" width="1" height="1" fill="#C46B16"/>
    <rect x="69" y="11" width="1" height="1" fill="#C46B16"/>
    <rect x="73" y="11" width="1" height="1" fill="#1E1816"/>
    <rect x="74" y="11" width="1" height="1" fill="#C46B16"/>
    <rect x="75" y="11" width="1" height="1" fill="#C46B16"/>
    <rect x="76" y="11" width="1" height="1" fill="#C46B16"/>
    <rect x="79" y="11" width="1" height="1" fill="#1E1816"/>
    <rect x="80" y="11" width="1" height="1" fill="#C46B16"/>
    <rect x="81" y="11" width="1" height="1" fill="#C46B16"/>
    <rect x="1" y="12" width="1" height="1" fill="#1E1816"/>
    <rect x="2" y="12" width="1" height="1" fill="#C46B16"/>
    <rect x="3" y="12" width="1" height="1" fill="#C46B16"/>
    <rect x="15" y="12" width="1" height="1" fill="#1E1816"/>
    <rect x="16" y="12" width="1" height="1" fill="#C46B16"/>
    <rect x="17" y="12" width="1" height="1" fill="#C46B16"/>
    <rect x="22" y="12" width="1" height="1" fill="#1E1816"/>
    <rect x="23" y="12" width="1" height="1" fill="#C46B16"/>
    <rect x="24" y="12" width="1" height="1" fill="#C46B16"/>
    <rect x="29" y="12" width="1" height="1" fill="#1E1816"/>
    <rect x="30" y="12" width="1" height="1" fill="#C46B16"/>
    <rect x="31" y="12" width="1" height="1" fill="#C46B16"/>
    <rect x="36" y="12" width="1" height="1" fill="#1E1816"/>
    <rect x="37" y="12" width="1" height="1" fill="#C46B16"/>
    <rect x="38" y="12" width="1" height="1" fill="#C46B16"/>
    <rect x="44" y="12" width="1" height="1" fill="#1E1816"/>
    <rect x="45" y="12" width="1" height="1" fill="#C46B16"/>
    <rect x="46" y="12" width="1" height="1" fill="#C46B16"/>
    <rect x="48" y="12" width="1" height="1" fill="#1E1816"/>
    <rect x="49" y="12" width="1" height="1" fill="#C46B16"/>
    <rect x="50" y="12" width="1" height="1" fill="#C46B16"/>
    <rect x="59" y="12" width="1" height="1" fill="#1E1816"/>
    <rect x="60" y="12" width="1" height="1" fill="#C46B16"/>
    <rect x="61" y="12" width="1" height="1" fill="#C46B16"/>
    <rect x="67" y="12" width="1" height="1" fill="#1E1816"/>
    <rect x="68" y="12" width="1" height="1" fill="#C46B16"/>
    <rect x="69" y="12" width="1" height="1" fill="#C46B16"/>
    <rect x="74" y="12" width="1" height="1" fill="#1E1816"/>
    <rect x="75" y="12" width="1" height="1" fill="#C46B16"/>
    <rect x="76" y="12" width="1" height="1" fill="#C46B16"/>
    <rect x="79" y="12" width="1" height="1" fill="#1E1816"/>
    <rect x="80" y="12" width="1" height="1" fill="#C46B16"/>
    <rect x="1" y="13" width="1" height="1" fill="#1E1816"/>
    <rect x="2" y="13" width="1" height="1" fill="#C46B16"/>
    <rect x="3" y="13" width="1" height="1" fill="#C46B16"/>
    <rect x="15" y="13" width="1" height="1" fill="#1E1816"/>
    <rect x="16" y="13" width="1" height="1" fill="#C46B16"/>
    <rect x="17" y="13" width="1" height="1" fill="#C46B16"/>
    <rect x="22" y="13" width="1" height="1" fill="#1E1816"/>
    <rect x="23" y="13" width="1" height="1" fill="#C46B16"/>
    <rect x="24" y="13" width="1" height="1" fill="#C46B16"/>
    <rect x="29" y="13" width="1" height="1" fill="#1E1816"/>
    <rect x="30" y="13" width="1" height="1" fill="#C46B16"/>
    <rect x="31" y="13" width="1" height="1" fill="#C46B16"/>
    <rect x="36" y="13" width="1" height="1" fill="#1E1816"/>
    <rect x="37" y="13" width="1" height="1" fill="#C46B16"/>
    <rect x="38" y="13" width="1" height="1" fill="#C46B16"/>
    <rect x="44" y="13" width="1" height="1" fill="#1E1816"/>
    <rect x="45" y="13" width="1" height="1" fill="#C46B16"/>
    <rect x="46" y="13" width="1" height="1" fill="#C46B16"/>
    <rect x="48" y="13" width="1" height="1" fill="#1E1816"/>
    <rect x="49" y="13" width="1" height="1" fill="#C46B16"/>
    <rect x="50" y="13" width="1" height="1" fill="#C46B16"/>
    <rect x="59" y="13" width="1" height="1" fill="#1E1816"/>
    <rect x="60" y="13" width="1" height="1" fill="#C46B16"/>
    <rect x="61" y="13" width="1" height="1" fill="#C46B16"/>
    <rect x="67" y="13" width="1" height="1" fill="#1E1816"/>
    <rect x="68" y="13" width="1" height="1" fill="#C46B16"/>
    <rect x="69" y="13" width="1" height="1" fill="#C46B16"/>
    <rect x="74" y="13" width="1" height="1" fill="#1E1816"/>
    <rect x="75" y="13" width="1" height="1" fill="#C46B16"/>
    <rect x="76" y="13" width="1" height="1" fill="#C46B16"/>
    <rect x="78" y="13" width="1" height="1" fill="#1E1816"/>
    <rect x="79" y="13" width="1" height="1" fill="#C46B16"/>
    <rect x="80" y="13" width="1" height="1" fill="#C46B16"/>
    <rect x="1" y="14" width="1" height="1" fill="#1E1816"/>
    <rect x="2" y="14" width="1" height="1" fill="#C46B16"/>
    <rect x="3" y="14" width="1" height="1" fill="#C46B16"/>
    <rect x="4" y="14" width="1" height="1" fill="#C46B16"/>
    <rect x="15" y="14" width="1" height="1" fill="#1E1816"/>
    <rect x="16" y="14" width="1" height="1" fill="#C46B16"/>
    <rect x="17" y="14" width="1" height="1" fill="#C46B16"/>
    <rect x="22" y="14" width="1" height="1" fill="#1E1816"/>
    <rect x="23" y="14" width="1" height="1" fill="#C46B16"/>
    <rect x="24" y="14" width="1" height="1" fill="#C46B16"/>
    <rect x="29" y="14" width="1" height="1" fill="#1E1816"/>
    <rect x="30" y="14" width="1" height="1" fill="#C46B16"/>
    <rect x="31" y="14" width="1" height="1" fill="#C46B16"/>
    <rect x="36" y="14" width="1" height="1" fill="#1E1816"/>
    <rect x="37" y="14" width="1" height="1" fill="#C46B16"/>
    <rect x="38" y="14" width="1" height="1" fill="#C46B16"/>
    <rect x="44" y="14" width="1" height="1" fill="#1E1816"/>
    <rect x="45" y="14" width="1" height="1" fill="#C46B16"/>
    <rect x="46" y="14" width="1" height="1" fill="#C46B16"/>
    <rect x="48" y="14" width="1" height="1" fill="#1E1816"/>
    <rect x="49" y="14" width="1" height="1" fill="#C46B16"/>
    <rect x="50" y="14" width="1" height="1" fill="#C46B16"/>
    <rect x="59" y="14" width="1" height="1" fill="#1E1816"/>
    <rect x="60" y="14" width="1" height="1" fill="#C46B16"/>
    <rect x="61" y="14" width="1" height="1" fill="#C46B16"/>
    <rect x="67" y="14" width="1" height="1" fill="#1E1816"/>
    <rect x="68" y="14" width="1" height="1" fill="#C46B16"/>
    <rect x="69" y="14" width="1" height="1" fill="#C46B16"/>
    <rect x="75" y="14" width="1" height="1" fill="#1E1816"/>
    <rect x="76" y="14" width="1" height="1" fill="#C46B16"/>
    <rect x="77" y="14" width="1" height="1" fill="#C46B16"/>
    <rect x="78" y="14" width="1" height="1" fill="#1E1816"/>
    <rect x="79" y="14" width="1" height="1" fill="#C46B16"/>
    <rect x="2" y="15" width="1" height="1" fill="#1E1816"/>
    <rect x="3" y="15" width="1" height="1" fill="#C46B16"/>
    <rect x="4" y="15" width="1" height="1" fill="#C46B16"/>
    <rect x="15" y="15" width="1" height="1" fill="#1E1816"/>
    <rect x="16" y="15" width="1" height="1" fill="#C46B16"/>
    <rect x="17" y="15" width="1" height="1" fill="#C46B16"/>
    <rect x="22" y="15" width="1" height="1" fill="#1E1816"/>
    <rect x="23" y="15" width="1" height="1" fill="#C46B16"/>
    <rect x="24" y="15" width="1" height="1" fill="#C46B16"/>
    <rect x="29" y="15" width="1" height="1" fill="#1E1816"/>
    <rect x="30" y="15" width="1" height="1" fill="#C46B16"/>
    <rect x="31" y="15" width="1" height="1" fill="#C46B16"/>
    <rect x="36" y="15" width="1" height="1" fill="#1E1816"/>
    <rect x="37" y="15" width="1" height="1" fill="#C46B16"/>
    <rect x="38" y="15" width="1" height="1" fill="#C46B16"/>
    <rect x="44" y="15" width="1" height="1" fill="#1E1816"/>
    <rect x="45" y="15" width="1" height="1" fill="#C46B16"/>
    <rect x="46" y="15" width="1" height="1" fill="#C46B16"/>
    <rect x="48" y="15" width="1" height="1" fill="#1E1816"/>
    <rect x="49" y="15" width="1" height="1" fill="#C46B16"/>
    <rect x="50" y="15" width="1" height="1" fill="#C46B16"/>
    <rect x="59" y="15" width="1" height="1" fill="#1E1816"/>
    <rect x="60" y="15" width="1" height="1" fill="#C46B16"/>
    <rect x="61" y="15" width="1" height="1" fill="#C46B16"/>
    <rect x="67" y="15" width="1" height="1" fill="#1E1816"/>
    <rect x="68" y="15" width="1" height="1" fill="#C46B16"/>
    <rect x="69" y="15" width="1" height="1" fill="#C46B16"/>
    <rect x="75" y="15" width="1" height="1" fill="#1E1816"/>
    <rect x="76" y="15" width="1" height="1" fill="#C46B16"/>
    <rect x="77" y="15" width="1" height="1" fill="#C46B16"/>
    <rect x="78" y="15" width="1" height="1" fill="#1E1816"/>
    <rect x="79" y="15" width="1" height="1" fill="#C46B16"/>
    <rect x="3" y="16" width="1" height="1" fill="#1E1816"/>
    <rect x="4" y="16" width="1" height="1" fill="#C46B16"/>
    <rect x="5" y="16" width="1" height="1" fill="#C46B16"/>
    <rect x="15" y="16" width="1" height="1" fill="#1E1816"/>
    <rect x="16" y="16" width="1" height="1" fill="#C46B16"/>
    <rect x="17" y="16" width="1" height="1" fill="#C46B16"/>
    <rect x="22" y="16" width="1" height="1" fill="#1E1816"/>
    <rect x="23" y="16" width="1" height="1" fill="#C46B16"/>
    <rect x="24" y="16" width="1" height="1" fill="#C46B16"/>
    <rect x="29" y="16" width="1" height="1" fill="#1E1816"/>
    <rect x="30" y="16" width="1" height="1" fill="#C46B16"/>
    <rect x="31" y="16" width="1" height="1" fill="#C46B16"/>
    <rect x="36" y="16" width="1" height="1" fill="#1E1816"/>
    <rect x="37" y="16" width="1" height="1" fill="#C46B16"/>
    <rect x="38" y="16" width="1" height="1" fill="#C46B16"/>
    <rect x="44" y="16" width="1" height="1" fill="#1E1816"/>
    <rect x="45" y="16" width="1" height="1" fill="#C46B16"/>
    <rect x="46" y="16" width="1" height="1" fill="#C46B16"/>
    <rect x="49" y="16" width="1" height="1" fill="#1E1816"/>
    <rect x="50" y="16" width="1" height="1" fill="#C46B16"/>
    <rect x="51" y="16" width="1" height="1" fill="#C46B16"/>
    <rect x="59" y="16" width="1" height="1" fill="#1E1816"/>
    <rect x="60" y="16" width="1" height="1" fill="#C46B16"/>
    <rect x="61" y="16" width="1" height="1" fill="#C46B16"/>
    <rect x="67" y="16" width="1" height="1" fill="#1E1816"/>
    <rect x="68" y="16" width="1" height="1" fill="#C46B16"/>
    <rect x="69" y="16" width="1" height="1" fill="#C46B16"/>
    <rect x="76" y="16" width="1" height="1" fill="#1E1816"/>
    <rect x="77" y="16" width="1" height="1" fill="#C46B16"/>
    <rect x="78" y="16" width="1" height="1" fill="#C46B16"/>
    <rect x="79" y="16" width="1" height="1" fill="#C46B16"/>
    <rect x="4" y="17" width="1" height="1" fill="#1E1816"/>
    <rect x="5" y="17" width="1" height="1" fill="#C46B16"/>
    <rect x="6" y="17" width="1" height="1" fill="#C46B16"/>
    <rect x="7" y="17" width="1" height="1" fill="#C46B16"/>
    <rect x="11" y="17" width="1" height="1" fill="#1E1816"/>
    <rect x="12" y="17" width="1" height="1" fill="#C46B16"/>
    <rect x="15" y="17" width="1" height="1" fill="#1E1816"/>
    <rect x="16" y="17" width="1" height="1" fill="#C46B16"/>
    <rect x="17" y="17" width="1" height="1" fill="#C46B16"/>
    <rect x="22" y="17" width="1" height="1" fill="#1E1816"/>
    <rect x="23" y="17" width="1" height="1" fill="#C46B16"/>
    <rect x="24" y="17" width="1" height="1" fill="#C46B16"/>
    <rect x="25" y="17" width="1" height="1" fill="#C46B16"/>
    <rect x="28" y="17" width="1" height="1" fill="#1E1816"/>
    <rect x="29" y="17" width="1" height="1" fill="#C46B16"/>
    <rect x="30" y="17" width="1" height="1" fill="#C46B16"/>
    <rect x="31" y="17" width="1" height="1" fill="#C46B16"/>
    <rect x="36" y="17" width="1" height="1" fill="#1E1816"/>
    <rect x="37" y="17" width="1" height="1" fill="#C46B16"/>
    <rect x="38" y="17" width="1" height="1" fill="#C46B16"/>
    <rect x="44" y="17" width="1" height="1" fill="#1E1816"/>
    <rect x="45" y="17" width="1" height="1" fill="#C46B16"/>
    <rect x="46" y="17" width="1" height="1" fill="#C46B16"/>
    <rect x="50" y="17" width="1" height="1" fill="#1E1816"/>
    <rect x="51" y="17" width="1" height="1" fill="#C46B16"/>
    <rect x="52" y="17" width="1" height="1" fill="#C46B16"/>
    <rect x="59" y="17" width="1" height="1" fill="#1E1816"/>
    <rect x="60" y="17" width="1" height="1" fill="#C46B16"/>
    <rect x="61" y="17" width="1" height="1" fill="#C46B16"/>
    <rect x="67" y="17" width="1" height="1" fill="#1E1816"/>
    <rect x="68" y="17" width="1" height="1" fill="#C46B16"/>
    <rect x="69" y="17" width="1" height="1" fill="#C46B16"/>
    <rect x="76" y="17" width="1" height="1" fill="#1E1816"/>
    <rect x="77" y="17" width="1" height="1" fill="#C46B16"/>
    <rect x="78" y="17" width="1" height="1" fill="#C46B16"/>
    <rect x="5" y="18" width="1" height="1" fill="#1E1816"/>
    <rect x="6" y="18" width="1" height="1" fill="#C46B16"/>
    <rect x="7" y="18" width="1" height="1" fill="#C46B16"/>
    <rect x="8" y="18" width="1" height="1" fill="#C46B16"/>
    <rect x="9" y="18" width="1" height="1" fill="#C46B16"/>
    <rect x="10" y="18" width="1" height="1" fill="#C46B16"/>
    <rect x="11" y="18" width="1" height="1" fill="#C46B16"/>
    <rect x="12" y="18" width="1" height="1" fill="#C46B16"/>
    <rect x="15" y="18" width="1" height="1" fill="#1E1816"/>
    <rect x="16" y="18" width="1" height="1" fill="#C46B16"/>
    <rect x="17" y="18" width="1" height="1" fill="#C46B16"/>
    <rect x="23" y="18" width="1" height="1" fill="#1E1816"/>
    <rect x="24" y="18" width="1" height="1" fill="#C46B16"/>
    <rect x="25" y="18" width="1" height="1" fill="#C46B16"/>
    <rect x="26" y="18" width="1" height="1" fill="#C46B16"/>
    <rect x="27" y="18" width="1" height="1" fill="#C46B16"/>
    <rect x="28" y="18" width="1" height="1" fill="#C46B16"/>
    <rect x="29" y="18" width="1" height="1" fill="#C46B16"/>
    <rect x="30" y="18" width="1" height="1" fill="#C46B16"/>
    <rect x="31" y="18" width="1" height="1" fill="#C46B16"/>
    <rect x="36" y="18" width="1" height="1" fill="#1E1816"/>
    <rect x="37" y="18" width="1" height="1" fill="#C46B16"/>
    <rect x="38" y="18" width="1" height="1" fill="#C46B16"/>
    <rect x="44" y="18" width="1" height="1" fill="#1E1816"/>
    <rect x="45" y="18" width="1" height="1" fill="#C46B16"/>
    <rect x="46" y="18" width="1" height="1" fill="#C46B16"/>
    <rect x="51" y="18" width="1" height="1" fill="#1E1816"/>
    <rect x="52" y="18" width="1" height="1" fill="#C46B16"/>
    <rect x="53" y="18" width="1" height="1" fill="#C46B16"/>
    <rect x="54" y="18" width="1" height="1" fill="#C46B16"/>
    <rect x="55" y="18" width="1" height="1" fill="#C46B16"/>
    <rect x="56" y="18" width="1" height="1" fill="#C46B16"/>
    <rect x="57" y="18" width="1" height="1" fill="#C46B16"/>
    <rect x="59" y="18" width="1" height="1" fill="#1E1816"/>
    <rect x="60" y="18" width="1" height="1" fill="#C46B16"/>
    <rect x="61" y="18" width="1" height="1" fill="#C46B16"/>
    <rect x="67" y="18" width="1" height="1" fill="#1E1816"/>
    <rect x="68" y="18" width="1" height="1" fill="#C46B16"/>
    <rect x="69" y="18" width="1" height="1" fill="#C46B16"/>
    <rect x="76" y="18" width="1" height="1" fill="#1E1816"/>
    <rect x="77" y="18" width="1" height="1" fill="#C46B16"/>
    <rect x="78" y="18" width="1" height="1" fill="#C46B16"/>
    <rect x="76" y="19" width="1" height="1" fill="#1E1816"/>
    <rect x="77" y="19" width="1" height="1" fill="#C46B16"/>
    <rect x="78" y="19" width="1" height="1" fill="#C46B16"/>
    <rect x="76" y="20" width="1" height="1" fill="#1E1816"/>
    <rect x="77" y="20" width="1" height="1" fill="#C46B16"/>
    <rect x="76" y="21" width="1" height="1" fill="#1E1816"/>
    <rect x="77" y="21" width="1" height="1" fill="#C46B16"/>
    <rect x="75" y="22" width="1" height="1" fill="#1E1816"/>
    <rect x="76" y="22" width="1" height="1" fill="#C46B16"/>
    <rect x="77" y="22" width="1" height="1" fill="#C46B16"/>
    <rect x="73" y="23" width="1" height="1" fill="#1E1816"/>
    <rect x="74" y="23" width="1" height="1" fill="#C46B16"/>
    <rect x="75" y="23" width="1" height="1" fill="#C46B16"/>
</svg>