<?xml version="1.0" encoding="UTF-8" ?>
<svg version="1.1" width="63" height="19" xmlns="http://www.w3.org/2000/svg" shape-rendering="crispEdges">
<rect x="1" y="2" width="1" height="1" fill="#1E1816" />
<rect x="2" y="2" width="1" height="1" fill="#5FCDE4" />
<rect x="3" y="2" width="1" height="1" fill="#5FCDE4" />
<rect x="4" y="2" width="1" height="1" fill="#5FCDE4" />
<rect x="5" y="2" width="1" height="1" fill="#5FCDE4" />
<rect x="6" y="2" width="1" height="1" fill="#5FCDE4" />
<rect x="7" y="2" width="1" height="1" fill="#5FCDE4" />
<rect x="8" y="2" width="1" height="1" fill="#5FCDE4" />
<rect x="9" y="2" width="1" height="1" fill="#5FCDE4" />
<rect x="16" y="2" width="1" height="1" fill="#1E1816" />
<rect x="17" y="2" width="1" height="1" fill="#5FCDE4" />
<rect x="18" y="2" width="1" height="1" fill="#5FCDE4" />
<rect x="19" y="2" width="1" height="1" fill="#5FCDE4" />
<rect x="20" y="2" width="1" height="1" fill="#5FCDE4" />
<rect x="21" y="2" width="1" height="1" fill="#5FCDE4" />
<rect x="22" y="2" width="1" height="1" fill="#5FCDE4" />
<rect x="23" y="2" width="1" height="1" fill="#5FCDE4" />
<rect x="24" y="2" width="1" height="1" fill="#5FCDE4" />
<rect x="43" y="2" width="1" height="1" fill="#1E1816" />
<rect x="44" y="2" width="1" height="1" fill="#5FCDE4" />
<rect x="45" y="2" width="1" height="1" fill="#5FCDE4" />
<rect x="46" y="2" width="1" height="1" fill="#5FCDE4" />
<rect x="53" y="2" width="1" height="1" fill="#1E1816" />
<rect x="54" y="2" width="1" height="1" fill="#5FCDE4" />
<rect x="55" y="2" width="1" height="1" fill="#5FCDE4" />
<rect x="56" y="2" width="1" height="1" fill="#5FCDE4" />
<rect x="57" y="2" width="1" height="1" fill="#5FCDE4" />
<rect x="58" y="2" width="1" height="1" fill="#5FCDE4" />
<rect x="1" y="3" width="1" height="1" fill="#1E1816" />
<rect x="2" y="3" width="1" height="1" fill="#5FCDE4" />
<rect x="3" y="3" width="1" height="1" fill="#5FCDE4" />
<rect x="7" y="3" width="1" height="1" fill="#1E1816" />
<rect x="8" y="3" width="1" height="1" fill="#5FCDE4" />
<rect x="9" y="3" width="1" height="1" fill="#5FCDE4" />
<rect x="10" y="3" width="1" height="1" fill="#5FCDE4" />
<rect x="16" y="3" width="1" height="1" fill="#1E1816" />
<rect x="17" y="3" width="1" height="1" fill="#5FCDE4" />
<rect x="18" y="3" width="1" height="1" fill="#5FCDE4" />
<rect x="23" y="3" width="1" height="1" fill="#1E1816" />
<rect x="24" y="3" width="1" height="1" fill="#5FCDE4" />
<rect x="25" y="3" width="1" height="1" fill="#5FCDE4" />
<rect x="42" y="3" width="1" height="1" fill="#1E1816" />
<rect x="43" y="3" width="1" height="1" fill="#5FCDE4" />
<rect x="44" y="3" width="1" height="1" fill="#5FCDE4" />
<rect x="45" y="3" width="1" height="1" fill="#5FCDE4" />
<rect x="46" y="3" width="1" height="1" fill="#5FCDE4" />
<rect x="52" y="3" width="1" height="1" fill="#1E1816" />
<rect x="53" y="3" width="1" height="1" fill="#5FCDE4" />
<rect x="54" y="3" width="1" height="1" fill="#5FCDE4" />
<rect x="57" y="3" width="1" height="1" fill="#1E1816" />
<rect x="58" y="3" width="1" height="1" fill="#5FCDE4" />
<rect x="59" y="3" width="1" height="1" fill="#5FCDE4" />
<rect x="1" y="4" width="1" height="1" fill="#1E1816" />
<rect x="2" y="4" width="1" height="1" fill="#5FCDE4" />
<rect x="3" y="4" width="1" height="1" fill="#5FCDE4" />
<rect x="9" y="4" width="1" height="1" fill="#1E1816" />
<rect x="10" y="4" width="1" height="1" fill="#5FCDE4" />
<rect x="11" y="4" width="1" height="1" fill="#5FCDE4" />
<rect x="16" y="4" width="1" height="1" fill="#1E1816" />
<rect x="17" y="4" width="1" height="1" fill="#5FCDE4" />
<rect x="18" y="4" width="1" height="1" fill="#5FCDE4" />
<rect x="24" y="4" width="1" height="1" fill="#1E1816" />
<rect x="25" y="4" width="1" height="1" fill="#5FCDE4" />
<rect x="26" y="4" width="1" height="1" fill="#5FCDE4" />
<rect x="42" y="4" width="1" height="1" fill="#1E1816" />
<rect x="43" y="4" width="1" height="1" fill="#5FCDE4" />
<rect x="44" y="4" width="1" height="1" fill="#5FCDE4" />
<rect x="45" y="4" width="1" height="1" fill="#5FCDE4" />
<rect x="46" y="4" width="1" height="1" fill="#5FCDE4" />
<rect x="51" y="4" width="1" height="1" fill="#1E1816" />
<rect x="52" y="4" width="1" height="1" fill="#5FCDE4" />
<rect x="53" y="4" width="1" height="1" fill="#5FCDE4" />
<rect x="58" y="4" width="1" height="1" fill="#1E1816" />
<rect x="59" y="4" width="1" height="1" fill="#5FCDE4" />
<rect x="60" y="4" width="1" height="1" fill="#5FCDE4" />
<rect x="1" y="5" width="1" height="1" fill="#1E1816" />
<rect x="2" y="5" width="1" height="1" fill="#5FCDE4" />
<rect x="3" y="5" width="1" height="1" fill="#5FCDE4" />
<rect x="10" y="5" width="1" height="1" fill="#1E1816" />
<rect x="11" y="5" width="1" height="1" fill="#5FCDE4" />
<rect x="12" y="5" width="1" height="1" fill="#5FCDE4" />
<rect x="16" y="5" width="1" height="1" fill="#1E1816" />
<rect x="17" y="5" width="1" height="1" fill="#5FCDE4" />
<rect x="18" y="5" width="1" height="1" fill="#5FCDE4" />
<rect x="24" y="5" width="1" height="1" fill="#1E1816" />
<rect x="25" y="5" width="1" height="1" fill="#5FCDE4" />
<rect x="26" y="5" width="1" height="1" fill="#5FCDE4" />
<rect x="41" y="5" width="1" height="1" fill="#1E1816" />
<rect x="42" y="5" width="1" height="1" fill="#5FCDE4" />
<rect x="43" y="5" width="1" height="1" fill="#5FCDE4" />
<rect x="44" y="5" width="1" height="1" fill="#1E1816" />
<rect x="45" y="5" width="1" height="1" fill="#5FCDE4" />
<rect x="46" y="5" width="1" height="1" fill="#5FCDE4" />
<rect x="51" y="5" width="1" height="1" fill="#1E1816" />
<rect x="52" y="5" width="1" height="1" fill="#5FCDE4" />
<rect x="53" y="5" width="1" height="1" fill="#5FCDE4" />
<rect x="58" y="5" width="1" height="1" fill="#1E1816" />
<rect x="59" y="5" width="1" height="1" fill="#5FCDE4" />
<rect x="60" y="5" width="1" height="1" fill="#5FCDE4" />
<rect x="1" y="6" width="1" height="1" fill="#1E1816" />
<rect x="2" y="6" width="1" height="1" fill="#5FCDE4" />
<rect x="3" y="6" width="1" height="1" fill="#5FCDE4" />
<rect x="10" y="6" width="1" height="1" fill="#1E1816" />
<rect x="11" y="6" width="1" height="1" fill="#5FCDE4" />
<rect x="12" y="6" width="1" height="1" fill="#5FCDE4" />
<rect x="13" y="6" width="1" height="1" fill="#5FCDE4" />
<rect x="16" y="6" width="1" height="1" fill="#1E1816" />
<rect x="17" y="6" width="1" height="1" fill="#5FCDE4" />
<rect x="18" y="6" width="1" height="1" fill="#5FCDE4" />
<rect x="24" y="6" width="1" height="1" fill="#1E1816" />
<rect x="25" y="6" width="1" height="1" fill="#5FCDE4" />
<rect x="26" y="6" width="1" height="1" fill="#5FCDE4" />
<rect x="40" y="6" width="1" height="1" fill="#1E1816" />
<rect x="41" y="6" width="1" height="1" fill="#5FCDE4" />
<rect x="42" y="6" width="1" height="1" fill="#5FCDE4" />
<rect x="44" y="6" width="1" height="1" fill="#1E1816" />
<rect x="45" y="6" width="1" height="1" fill="#5FCDE4" />
<rect x="46" y="6" width="1" height="1" fill="#5FCDE4" />
<rect x="50" y="6" width="1" height="1" fill="#1E1816" />
<rect x="51" y="6" width="1" height="1" fill="#5FCDE4" />
<rect x="52" y="6" width="1" height="1" fill="#5FCDE4" />
<rect x="59" y="6" width="1" height="1" fill="#1E1816" />
<rect x="60" y="6" width="1" height="1" fill="#5FCDE4" />
<rect x="61" y="6" width="1" height="1" fill="#5FCDE4" />
<rect x="1" y="7" width="1" height="1" fill="#1E1816" />
<rect x="2" y="7" width="1" height="1" fill="#5FCDE4" />
<rect x="3" y="7" width="1" height="1" fill="#5FCDE4" />
<rect x="11" y="7" width="1" height="1" fill="#1E1816" />
<rect x="12" y="7" width="1" height="1" fill="#5FCDE4" />
<rect x="13" y="7" width="1" height="1" fill="#5FCDE4" />
<rect x="16" y="7" width="1" height="1" fill="#1E1816" />
<rect x="17" y="7" width="1" height="1" fill="#5FCDE4" />
<rect x="18" y="7" width="1" height="1" fill="#5FCDE4" />
<rect x="24" y="7" width="1" height="1" fill="#1E1816" />
<rect x="25" y="7" width="1" height="1" fill="#5FCDE4" />
<rect x="26" y="7" width="1" height="1" fill="#5FCDE4" />
<rect x="39" y="7" width="1" height="1" fill="#1E1816" />
<rect x="40" y="7" width="1" height="1" fill="#5FCDE4" />
<rect x="41" y="7" width="1" height="1" fill="#5FCDE4" />
<rect x="44" y="7" width="1" height="1" fill="#1E1816" />
<rect x="45" y="7" width="1" height="1" fill="#5FCDE4" />
<rect x="46" y="7" width="1" height="1" fill="#5FCDE4" />
<rect x="50" y="7" width="1" height="1" fill="#1E1816" />
<rect x="51" y="7" width="1" height="1" fill="#5FCDE4" />
<rect x="52" y="7" width="1" height="1" fill="#5FCDE4" />
<rect x="59" y="7" width="1" height="1" fill="#1E1816" />
<rect x="60" y="7" width="1" height="1" fill="#5FCDE4" />
<rect x="61" y="7" width="1" height="1" fill="#5FCDE4" />
<rect x="1" y="8" width="1" height="1" fill="#1E1816" />
<rect x="2" y="8" width="1" height="1" fill="#5FCDE4" />
<rect x="3" y="8" width="1" height="1" fill="#5FCDE4" />
<rect x="11" y="8" width="1" height="1" fill="#1E1816" />
<rect x="12" y="8" width="1" height="1" fill="#5FCDE4" />
<rect x="13" y="8" width="1" height="1" fill="#5FCDE4" />
<rect x="16" y="8" width="1" height="1" fill="#1E1816" />
<rect x="17" y="8" width="1" height="1" fill="#5FCDE4" />
<rect x="18" y="8" width="1" height="1" fill="#5FCDE4" />
<rect x="22" y="8" width="1" height="1" fill="#1E1816" />
<rect x="23" y="8" width="1" height="1" fill="#5FCDE4" />
<rect x="24" y="8" width="1" height="1" fill="#5FCDE4" />
<rect x="25" y="8" width="1" height="1" fill="#5FCDE4" />
<rect x="39" y="8" width="1" height="1" fill="#1E1816" />
<rect x="40" y="8" width="1" height="1" fill="#5FCDE4" />
<rect x="41" y="8" width="1" height="1" fill="#5FCDE4" />
<rect x="44" y="8" width="1" height="1" fill="#1E1816" />
<rect x="45" y="8" width="1" height="1" fill="#5FCDE4" />
<rect x="46" y="8" width="1" height="1" fill="#5FCDE4" />
<rect x="50" y="8" width="1" height="1" fill="#1E1816" />
<rect x="51" y="8" width="1" height="1" fill="#5FCDE4" />
<rect x="52" y="8" width="1" height="1" fill="#5FCDE4" />
<rect x="59" y="8" width="1" height="1" fill="#1E1816" />
<rect x="60" y="8" width="1" height="1" fill="#5FCDE4" />
<rect x="61" y="8" width="1" height="1" fill="#5FCDE4" />
<rect x="1" y="9" width="1" height="1" fill="#1E1816" />
<rect x="2" y="9" width="1" height="1" fill="#5FCDE4" />
<rect x="3" y="9" width="1" height="1" fill="#5FCDE4" />
<rect x="11" y="9" width="1" height="1" fill="#1E1816" />
<rect x="12" y="9" width="1" height="1" fill="#5FCDE4" />
<rect x="13" y="9" width="1" height="1" fill="#5FCDE4" />
<rect x="16" y="9" width="1" height="1" fill="#1E1816" />
<rect x="17" y="9" width="1" height="1" fill="#5FCDE4" />
<rect x="18" y="9" width="1" height="1" fill="#5FCDE4" />
<rect x="19" y="9" width="1" height="1" fill="#5FCDE4" />
<rect x="20" y="9" width="1" height="1" fill="#5FCDE4" />
<rect x="21" y="9" width="1" height="1" fill="#5FCDE4" />
<rect x="22" y="9" width="1" height="1" fill="#5FCDE4" />
<rect x="23" y="9" width="1" height="1" fill="#5FCDE4" />
<rect x="24" y="9" width="1" height="1" fill="#5FCDE4" />
<rect x="29" y="9" width="1" height="1" fill="#1E1816" />
<rect x="30" y="9" width="1" height="1" fill="#5FCDE4" />
<rect x="31" y="9" width="1" height="1" fill="#5FCDE4" />
<rect x="32" y="9" width="1" height="1" fill="#5FCDE4" />
<rect x="33" y="9" width="1" height="1" fill="#5FCDE4" />
<rect x="34" y="9" width="1" height="1" fill="#5FCDE4" />
<rect x="35" y="9" width="1" height="1" fill="#5FCDE4" />
<rect x="38" y="9" width="1" height="1" fill="#1E1816" />
<rect x="39" y="9" width="1" height="1" fill="#5FCDE4" />
<rect x="40" y="9" width="1" height="1" fill="#5FCDE4" />
<rect x="44" y="9" width="1" height="1" fill="#1E1816" />
<rect x="45" y="9" width="1" height="1" fill="#5FCDE4" />
<rect x="46" y="9" width="1" height="1" fill="#5FCDE4" />
<rect x="50" y="9" width="1" height="1" fill="#1E1816" />
<rect x="51" y="9" width="1" height="1" fill="#5FCDE4" />
<rect x="52" y="9" width="1" height="1" fill="#5FCDE4" />
<rect x="59" y="9" width="1" height="1" fill="#1E1816" />
<rect x="60" y="9" width="1" height="1" fill="#5FCDE4" />
<rect x="61" y="9" width="1" height="1" fill="#5FCDE4" />
<rect x="1" y="10" width="1" height="1" fill="#1E1816" />
<rect x="2" y="10" width="1" height="1" fill="#5FCDE4" />
<rect x="3" y="10" width="1" height="1" fill="#5FCDE4" />
<rect x="11" y="10" width="1" height="1" fill="#1E1816" />
<rect x="12" y="10" width="1" height="1" fill="#5FCDE4" />
<rect x="13" y="10" width="1" height="1" fill="#5FCDE4" />
<rect x="16" y="10" width="1" height="1" fill="#1E1816" />
<rect x="17" y="10" width="1" height="1" fill="#5FCDE4" />
<rect x="18" y="10" width="1" height="1" fill="#5FCDE4" />
<rect x="23" y="10" width="1" height="1" fill="#1E1816" />
<rect x="24" y="10" width="1" height="1" fill="#5FCDE4" />
<rect x="25" y="10" width="1" height="1" fill="#5FCDE4" />
<rect x="26" y="10" width="1" height="1" fill="#5FCDE4" />
<rect x="29" y="10" width="1" height="1" fill="#1E1816" />
<rect x="30" y="10" width="1" height="1" fill="#5FCDE4" />
<rect x="31" y="10" width="1" height="1" fill="#5FCDE4" />
<rect x="32" y="10" width="1" height="1" fill="#5FCDE4" />
<rect x="33" y="10" width="1" height="1" fill="#5FCDE4" />
<rect x="34" y="10" width="1" height="1" fill="#5FCDE4" />
<rect x="35" y="10" width="1" height="1" fill="#5FCDE4" />
<rect x="37" y="10" width="1" height="1" fill="#1E1816" />
<rect x="38" y="10" width="1" height="1" fill="#5FCDE4" />
<rect x="39" y="10" width="1" height="1" fill="#5FCDE4" />
<rect x="44" y="10" width="1" height="1" fill="#1E1816" />
<rect x="45" y="10" width="1" height="1" fill="#5FCDE4" />
<rect x="46" y="10" width="1" height="1" fill="#5FCDE4" />
<rect x="50" y="10" width="1" height="1" fill="#1E1816" />
<rect x="51" y="10" width="1" height="1" fill="#5FCDE4" />
<rect x="52" y="10" width="1" height="1" fill="#5FCDE4" />
<rect x="59" y="10" width="1" height="1" fill="#1E1816" />
<rect x="60" y="10" width="1" height="1" fill="#5FCDE4" />
<rect x="61" y="10" width="1" height="1" fill="#5FCDE4" />
<rect x="1" y="11" width="1" height="1" fill="#1E1816" />
<rect x="2" y="11" width="1" height="1" fill="#5FCDE4" />
<rect x="3" y="11" width="1" height="1" fill="#5FCDE4" />
<rect x="11" y="11" width="1" height="1" fill="#1E1816" />
<rect x="12" y="11" width="1" height="1" fill="#5FCDE4" />
<rect x="13" y="11" width="1" height="1" fill="#5FCDE4" />
<rect x="16" y="11" width="1" height="1" fill="#1E1816" />
<rect x="17" y="11" width="1" height="1" fill="#5FCDE4" />
<rect x="18" y="11" width="1" height="1" fill="#5FCDE4" />
<rect x="25" y="11" width="1" height="1" fill="#1E1816" />
<rect x="26" y="11" width="1" height="1" fill="#5FCDE4" />
<rect x="27" y="11" width="1" height="1" fill="#5FCDE4" />
<rect x="37" y="11" width="1" height="1" fill="#1E1816" />
<rect x="38" y="11" width="1" height="1" fill="#5FCDE4" />
<rect x="39" y="11" width="1" height="1" fill="#5FCDE4" />
<rect x="40" y="11" width="1" height="1" fill="#5FCDE4" />
<rect x="41" y="11" width="1" height="1" fill="#5FCDE4" />
<rect x="42" y="11" width="1" height="1" fill="#5FCDE4" />
<rect x="43" y="11" width="1" height="1" fill="#5FCDE4" />
<rect x="44" y="11" width="1" height="1" fill="#5FCDE4" />
<rect x="45" y="11" width="1" height="1" fill="#5FCDE4" />
<rect x="46" y="11" width="1" height="1" fill="#5FCDE4" />
<rect x="47" y="11" width="1" height="1" fill="#5FCDE4" />
<rect x="48" y="11" width="1" height="1" fill="#5FCDE4" />
<rect x="50" y="11" width="1" height="1" fill="#1E1816" />
<rect x="51" y="11" width="1" height="1" fill="#5FCDE4" />
<rect x="52" y="11" width="1" height="1" fill="#5FCDE4" />
<rect x="59" y="11" width="1" height="1" fill="#1E1816" />
<rect x="60" y="11" width="1" height="1" fill="#5FCDE4" />
<rect x="61" y="11" width="1" height="1" fill="#5FCDE4" />
<rect x="1" y="12" width="1" height="1" fill="#1E1816" />
<rect x="2" y="12" width="1" height="1" fill="#5FCDE4" />
<rect x="3" y="12" width="1" height="1" fill="#5FCDE4" />
<rect x="10" y="12" width="1" height="1" fill="#1E1816" />
<rect x="11" y="12" width="1" height="1" fill="#5FCDE4" />
<rect x="12" y="12" width="1" height="1" fill="#5FCDE4" />
<rect x="16" y="12" width="1" height="1" fill="#1E1816" />
<rect x="17" y="12" width="1" height="1" fill="#5FCDE4" />
<rect x="18" y="12" width="1" height="1" fill="#5FCDE4" />
<rect x="25" y="12" width="1" height="1" fill="#1E1816" />
<rect x="26" y="12" width="1" height="1" fill="#5FCDE4" />
<rect x="27" y="12" width="1" height="1" fill="#5FCDE4" />
<rect x="44" y="12" width="1" height="1" fill="#1E1816" />
<rect x="45" y="12" width="1" height="1" fill="#5FCDE4" />
<rect x="46" y="12" width="1" height="1" fill="#5FCDE4" />
<rect x="50" y="12" width="1" height="1" fill="#1E1816" />
<rect x="51" y="12" width="1" height="1" fill="#5FCDE4" />
<rect x="52" y="12" width="1" height="1" fill="#5FCDE4" />
<rect x="59" y="12" width="1" height="1" fill="#1E1816" />
<rect x="60" y="12" width="1" height="1" fill="#5FCDE4" />
<rect x="61" y="12" width="1" height="1" fill="#5FCDE4" />
<rect x="1" y="13" width="1" height="1" fill="#1E1816" />
<rect x="2" y="13" width="1" height="1" fill="#5FCDE4" />
<rect x="3" y="13" width="1" height="1" fill="#5FCDE4" />
<rect x="10" y="13" width="1" height="1" fill="#1E1816" />
<rect x="11" y="13" width="1" height="1" fill="#5FCDE4" />
<rect x="12" y="13" width="1" height="1" fill="#5FCDE4" />
<rect x="16" y="13" width="1" height="1" fill="#1E1816" />
<rect x="17" y="13" width="1" height="1" fill="#5FCDE4" />
<rect x="18" y="13" width="1" height="1" fill="#5FCDE4" />
<rect x="25" y="13" width="1" height="1" fill="#1E1816" />
<rect x="26" y="13" width="1" height="1" fill="#5FCDE4" />
<rect x="27" y="13" width="1" height="1" fill="#5FCDE4" />
<rect x="44" y="13" width="1" height="1" fill="#1E1816" />
<rect x="45" y="13" width="1" height="1" fill="#5FCDE4" />
<rect x="46" y="13" width="1" height="1" fill="#5FCDE4" />
<rect x="50" y="13" width="1" height="1" fill="#1E1816" />
<rect x="51" y="13" width="1" height="1" fill="#5FCDE4" />
<rect x="52" y="13" width="1" height="1" fill="#5FCDE4" />
<rect x="59" y="13" width="1" height="1" fill="#1E1816" />
<rect x="60" y="13" width="1" height="1" fill="#5FCDE4" />
<rect x="61" y="13" width="1" height="1" fill="#5FCDE4" />
<rect x="1" y="14" width="1" height="1" fill="#1E1816" />
<rect x="2" y="14" width="1" height="1" fill="#5FCDE4" />
<rect x="3" y="14" width="1" height="1" fill="#5FCDE4" />
<rect x="9" y="14" width="1" height="1" fill="#1E1816" />
<rect x="10" y="14" width="1" height="1" fill="#5FCDE4" />
<rect x="11" y="14" width="1" height="1" fill="#5FCDE4" />
<rect x="16" y="14" width="1" height="1" fill="#1E1816" />
<rect x="17" y="14" width="1" height="1" fill="#5FCDE4" />
<rect x="18" y="14" width="1" height="1" fill="#5FCDE4" />
<rect x="25" y="14" width="1" height="1" fill="#1E1816" />
<rect x="26" y="14" width="1" height="1" fill="#5FCDE4" />
<rect x="27" y="14" width="1" height="1" fill="#5FCDE4" />
<rect x="44" y="14" width="1" height="1" fill="#1E1816" />
<rect x="45" y="14" width="1" height="1" fill="#5FCDE4" />
<rect x="46" y="14" width="1" height="1" fill="#5FCDE4" />
<rect x="51" y="14" width="1" height="1" fill="#1E1816" />
<rect x="52" y="14" width="1" height="1" fill="#5FCDE4" />
<rect x="53" y="14" width="1" height="1" fill="#5FCDE4" />
<rect x="58" y="14" width="1" height="1" fill="#1E1816" />
<rect x="59" y="14" width="1" height="1" fill="#5FCDE4" />
<rect x="60" y="14" width="1" height="1" fill="#5FCDE4" />
<rect x="1" y="15" width="1" height="1" fill="#1E1816" />
<rect x="2" y="15" width="1" height="1" fill="#5FCDE4" />
<rect x="3" y="15" width="1" height="1" fill="#5FCDE4" />
<rect x="8" y="15" width="1" height="1" fill="#1E1816" />
<rect x="9" y="15" width="1" height="1" fill="#5FCDE4" />
<rect x="10" y="15" width="1" height="1" fill="#5FCDE4" />
<rect x="16" y="15" width="1" height="1" fill="#1E1816" />
<rect x="17" y="15" width="1" height="1" fill="#5FCDE4" />
<rect x="18" y="15" width="1" height="1" fill="#5FCDE4" />
<rect x="23" y="15" width="1" height="1" fill="#1E1816" />
<rect x="24" y="15" width="1" height="1" fill="#5FCDE4" />
<rect x="25" y="15" width="1" height="1" fill="#5FCDE4" />
<rect x="26" y="15" width="1" height="1" fill="#5FCDE4" />
<rect x="44" y="15" width="1" height="1" fill="#1E1816" />
<rect x="45" y="15" width="1" height="1" fill="#5FCDE4" />
<rect x="46" y="15" width="1" height="1" fill="#5FCDE4" />
<rect x="51" y="15" width="1" height="1" fill="#1E1816" />
<rect x="52" y="15" width="1" height="1" fill="#5FCDE4" />
<rect x="53" y="15" width="1" height="1" fill="#5FCDE4" />
<rect x="54" y="15" width="1" height="1" fill="#5FCDE4" />
<rect x="57" y="15" width="1" height="1" fill="#1E1816" />
<rect x="58" y="15" width="1" height="1" fill="#5FCDE4" />
<rect x="59" y="15" width="1" height="1" fill="#5FCDE4" />
<rect x="1" y="16" width="1" height="1" fill="#1E1816" />
<rect x="2" y="16" width="1" height="1" fill="#5FCDE4" />
<rect x="3" y="16" width="1" height="1" fill="#5FCDE4" />
<rect x="4" y="16" width="1" height="1" fill="#5FCDE4" />
<rect x="5" y="16" width="1" height="1" fill="#5FCDE4" />
<rect x="6" y="16" width="1" height="1" fill="#5FCDE4" />
<rect x="7" y="16" width="1" height="1" fill="#5FCDE4" />
<rect x="8" y="16" width="1" height="1" fill="#5FCDE4" />
<rect x="16" y="16" width="1" height="1" fill="#1E1816" />
<rect x="17" y="16" width="1" height="1" fill="#5FCDE4" />
<rect x="18" y="16" width="1" height="1" fill="#5FCDE4" />
<rect x="19" y="16" width="1" height="1" fill="#5FCDE4" />
<rect x="20" y="16" width="1" height="1" fill="#5FCDE4" />
<rect x="21" y="16" width="1" height="1" fill="#5FCDE4" />
<rect x="22" y="16" width="1" height="1" fill="#5FCDE4" />
<rect x="23" y="16" width="1" height="1" fill="#5FCDE4" />
<rect x="44" y="16" width="1" height="1" fill="#1E1816" />
<rect x="45" y="16" width="1" height="1" fill="#5FCDE4" />
<rect x="46" y="16" width="1" height="1" fill="#5FCDE4" />
<rect x="51" y="16" width="1" height="1" fill="#1E1816" />
<rect x="52" y="16" width="1" height="1" fill="#5FCDE4" />
<rect x="53" y="16" width="1" height="1" fill="#5FCDE4" />
<rect x="54" y="16" width="1" height="1" fill="#5FCDE4" />
<rect x="57" y="16" width="1" height="1" fill="#1E1816" />
<rect x="58" y="16" width="1" height="1" fill="#5FCDE4" />
<rect x="59" y="16" width="1" height="1" fill="#5FCDE4" />
<rect x="44" y="17" width="1" height="1" fill="#1E1816" />
<rect x="45" y="17" width="1" height="1" fill="#5FCDE4" />
<rect x="46" y="17" width="1" height="1" fill="#5FCDE4" />
<rect x="53" y="17" width="1" height="1" fill="#1E1816" />
<rect x="54" y="17" width="1" height="1" fill="#5FCDE4" />
<rect x="55" y="17" width="1" height="1" fill="#5FCDE4" />
<rect x="56" y="17" width="1" height="1" fill="#5FCDE4" />
<rect x="57" y="17" width="1" height="1" fill="#5FCDE4" />
<rect x="58" y="17" width="1" height="1" fill="#5FCDE4" />
</svg>